<mxfile host="Electron" modified="2024-10-12T07:35:44.749Z" agent="Mozilla/5.0 (Windows NT 10.0; Win64; x64) AppleWebKit/537.36 (KHTML, like Gecko) draw.io/24.6.4 Chrome/124.0.6367.207 Electron/30.0.6 Safari/537.36" etag="vKDBVCcxVDnp_NhWFtKu" version="24.6.4" type="device">
  <diagram name="Страница — 1" id="08WNWxZFKdGTUDTneu4I">
    <mxGraphModel dx="3867" dy="2300" grid="0" gridSize="10" guides="1" tooltips="1" connect="1" arrows="1" fold="1" page="1" pageScale="1" pageWidth="3300" pageHeight="2339" math="0" shadow="0">
      <root>
        <mxCell id="0" />
        <mxCell id="1" parent="0" />
        <UserObject label="&lt;div style=&quot;font-size: 30px;&quot;&gt;&lt;/div&gt;" tags="Фон" id="COeZKT1pooXrTItKmlAN-1">
          <mxCell style="verticalAlign=middle;align=center;overflow=width;vsdxID=1;fillColor=none;shape=stencil(nZBLDoAgDERP0z3SIyjew0SURgSD+Lu9kMZoXLhwN9O+tukAlrNpJg1SzDH4QW/URgNYgZTkjA4UkwJUgGXng+6DX1zLfmoymdXo17xh5zmRJ6Q42BWCfc2oJfdAr+Yv+AP9Cb7OJ3H/2JG1HNGz/84klThPVCc=);strokeWidth=3;points=[];labelBackgroundColor=none;rounded=0;html=1;whiteSpace=wrap;fontSize=30;movable=0;resizable=0;rotatable=0;deletable=0;editable=0;locked=1;connectable=0;" parent="1" vertex="1">
            <mxGeometry x="79.99999999999994" y="20" width="3200.01" height="2300" as="geometry" />
          </mxCell>
        </UserObject>
        <mxCell id="COeZKT1pooXrTItKmlAN-52" value="&lt;div style=&quot;font-size: 1px&quot;&gt;&lt;p style=&quot;text-align:center;margin-left:0;margin-right:0;margin-top:0px;margin-bottom:0px;text-indent:0;vertical-align:middle;direction:ltr;&quot;&gt;&lt;font style=&quot;font-size:19.76px;font-family:ISOCPEUR;color:#000000;direction:ltr;letter-spacing:0px;line-height:120%;opacity:1&quot;&gt;&lt;i&gt;К&lt;/i&gt;&lt;/font&gt;&lt;font style=&quot;font-size:19.76px;font-family:ISOCPEUR;color:#000000;direction:ltr;letter-spacing:0px;line-height:120%;opacity:1&quot;&gt;&lt;i&gt;П 2-&lt;/i&gt;&lt;/font&gt;&lt;font style=&quot;font-size:19.76px;font-family:ISOCPEUR;color:#000000;direction:ltr;letter-spacing:0px;line-height:120%;opacity:1&quot;&gt;&lt;i&gt;40 &lt;/i&gt;&lt;/font&gt;&lt;font style=&quot;font-size:19.76px;font-family:ISOCPEUR;color:#000000;direction:ltr;letter-spacing:0px;line-height:120%;opacity:1&quot;&gt;&lt;i&gt;0&lt;/i&gt;&lt;/font&gt;&lt;font style=&quot;font-size:19.76px;font-family:ISOCPEUR;color:#000000;direction:ltr;letter-spacing:0px;line-height:120%;opacity:1&quot;&gt;&lt;i&gt;1 01.35&lt;/i&gt;&lt;/font&gt;&lt;font style=&quot;font-size:19.76px;font-family:ISOCPEUR;color:#000000;direction:ltr;letter-spacing:0px;line-height:120%;opacity:1&quot;&gt;&lt;i&gt;.40&lt;/i&gt;&lt;/font&gt;&lt;font style=&quot;font-size:19.76px;font-family:ISOCPEUR;color:#000000;direction:ltr;letter-spacing:0px;line-height:120%;opacity:1&quot;&gt;&lt;i&gt;.19&lt;/i&gt;&lt;/font&gt;&lt;font style=&quot;font-size:19.76px;font-family:ISOCPEUR;color:#000000;direction:ltr;letter-spacing:0px;line-height:120%;opacity:1&quot;&gt;&lt;i&gt;.24 ГЧ&lt;/i&gt;&lt;/font&gt;&lt;font style=&quot;font-size:19.76px;font-family:ISOCPEUR;color:#000000;direction:ltr;letter-spacing:0px;line-height:120%;opacity:1&quot;&gt;&lt;i&gt;&lt;br&gt;&lt;/i&gt;&lt;/font&gt;&lt;/p&gt;&lt;/div&gt;" style="text;vsdxID=200;fillColor=none;strokeColor=none;points=[];labelBackgroundColor=none;rounded=0;html=1;whiteSpace=wrap;verticalAlign=middle;align=center;overflow=width;rotation=180.09;;html=1;movable=1;resizable=1;rotatable=1;deletable=1;editable=1;locked=0;connectable=1;strokeWidth=1;" parent="1" vertex="1">
          <mxGeometry x="81.1" y="9.08" width="469.9" height="87.01" as="geometry" />
        </mxCell>
        <mxCell id="COeZKT1pooXrTItKmlAN-285" value="" style="endArrow=none;html=1;rounded=0;strokeWidth=2;startArrow=openThin;startFill=0;startSize=9;" parent="1" edge="1">
          <mxGeometry width="50" height="50" relative="1" as="geometry">
            <mxPoint x="211" y="320" as="sourcePoint" />
            <mxPoint x="211.24" y="2149.04" as="targetPoint" />
          </mxGeometry>
        </mxCell>
        <mxCell id="RtJh5RVURmU-iK2Eab-f-115" value="" style="verticalLabelPosition=bottom;verticalAlign=top;html=1;shape=mxgraph.basic.arc;startAngle=0.25;endAngle=0.7563628056739959;rotation=90;direction=south;strokeWidth=2;fontFamily=isocpeur;" parent="1" vertex="1">
          <mxGeometry x="196.00140709303253" y="520.7814493169651" width="31.234967963114663" height="28.698775729466032" as="geometry" />
        </mxCell>
        <UserObject label="" tags="Фон" id="RtJh5RVURmU-iK2Eab-f-211">
          <mxCell style="vsdxID=2;edgeStyle=none;startArrow=none;endArrow=none;startSize=5;endSize=5;strokeWidth=3;spacingTop=0;spacingBottom=0;spacingLeft=0;spacingRight=0;verticalAlign=middle;html=1;labelBackgroundColor=none;rounded=0;fontColor=default;fontFamily=isocpeur;movable=0;resizable=0;rotatable=0;deletable=0;editable=0;locked=1;connectable=0;" parent="1" edge="1">
            <mxGeometry relative="1" as="geometry">
              <mxPoint as="offset" />
              <Array as="points" />
              <mxPoint x="79" y="79" as="sourcePoint" />
              <mxPoint x="556" y="79" as="targetPoint" />
            </mxGeometry>
          </mxCell>
        </UserObject>
        <mxCell id="RtJh5RVURmU-iK2Eab-f-90" value="Заставка" style="shape=display;whiteSpace=wrap;html=1;fontSize=22;fontFamily=isocpeur;" parent="1" vertex="1">
          <mxGeometry x="1491.1445819579662" y="236.03394619111828" width="168.05094221367986" height="63.41491536083015" as="geometry" />
        </mxCell>
        <mxCell id="NguQTIr1SdlHwa-LjI-z-46" style="edgeStyle=orthogonalEdgeStyle;rounded=0;orthogonalLoop=1;jettySize=auto;html=1;exitX=0;exitY=0;exitDx=92.07675464111443;exitDy=74.27863035759323;exitPerimeter=0;strokeWidth=2;endArrow=none;endFill=0;endSize=10;entryX=-0.054;entryY=0.58;entryDx=0;entryDy=0;entryPerimeter=0;" parent="1" edge="1">
          <mxGeometry relative="1" as="geometry">
            <mxPoint x="227.51801282871395" y="533.632039744649" as="targetPoint" />
            <mxPoint x="813.8790386123692" y="514.7974626219835" as="sourcePoint" />
            <Array as="points">
              <mxPoint x="814" y="535" />
              <mxPoint x="228" y="535" />
            </Array>
          </mxGeometry>
        </mxCell>
        <mxCell id="RtJh5RVURmU-iK2Eab-f-91" value="Выход из программы" style="shape=display;whiteSpace=wrap;html=1;fontSize=22;fontFamily=isocpeur;" parent="1" vertex="1">
          <mxGeometry x="721.8022839712547" y="439.51883226439026" width="177.03425956882037" height="74.27863035759323" as="geometry" />
        </mxCell>
        <mxCell id="RtJh5RVURmU-iK2Eab-f-92" value="" style="endArrow=none;html=1;rounded=0;strokeWidth=2;fontFamily=isocpeur;" parent="1" edge="1">
          <mxGeometry width="50" height="50" relative="1" as="geometry">
            <mxPoint x="1581.318241043943" y="433.7447652976159" as="sourcePoint" />
            <mxPoint x="1581.206119346216" y="411.46117619033805" as="targetPoint" />
          </mxGeometry>
        </mxCell>
        <mxCell id="RtJh5RVURmU-iK2Eab-f-93" value="" style="endArrow=none;html=1;rounded=0;strokeWidth=2;fontFamily=isocpeur;" parent="1" edge="1">
          <mxGeometry width="50" height="50" relative="1" as="geometry">
            <mxPoint x="1583.4843297081306" y="236.03394619111828" as="sourcePoint" />
            <mxPoint x="1583.3722080104035" y="212.46135524945026" as="targetPoint" />
          </mxGeometry>
        </mxCell>
        <mxCell id="RtJh5RVURmU-iK2Eab-f-95" value="" style="endArrow=none;html=1;rounded=0;strokeWidth=2;fontFamily=isocpeur;" parent="1" edge="1">
          <mxGeometry width="50" height="50" relative="1" as="geometry">
            <mxPoint x="1317.5136256170395" y="526.6483747683627" as="sourcePoint" />
            <mxPoint x="1317.4015039193127" y="504.3647856610847" as="targetPoint" />
          </mxGeometry>
        </mxCell>
        <mxCell id="RtJh5RVURmU-iK2Eab-f-96" value="" style="endArrow=none;html=1;rounded=0;strokeWidth=2;fontFamily=isocpeur;" parent="1" edge="1">
          <mxGeometry width="50" height="50" relative="1" as="geometry">
            <mxPoint x="1828.2510730382817" y="524.2130083380512" as="sourcePoint" />
            <mxPoint x="1828.138951340555" y="501.9294192307732" as="targetPoint" />
          </mxGeometry>
        </mxCell>
        <mxCell id="RtJh5RVURmU-iK2Eab-f-97" value="" style="endArrow=none;html=1;rounded=0;strokeWidth=2;fontFamily=isocpeur;" parent="1" edge="1">
          <mxGeometry width="50" height="50" relative="1" as="geometry">
            <mxPoint x="1580.5199658850763" y="424.97581704897647" as="sourcePoint" />
            <mxPoint x="1828.314819003554" y="424.97581704897647" as="targetPoint" />
          </mxGeometry>
        </mxCell>
        <mxCell id="RtJh5RVURmU-iK2Eab-f-98" value="" style="endArrow=none;html=1;rounded=0;strokeWidth=2;startArrow=openThin;startFill=0;fontFamily=isocpeur;startSize=10;" parent="1" edge="1">
          <mxGeometry width="50" height="50" relative="1" as="geometry">
            <mxPoint x="807.1533250914774" y="424.80682841059416" as="sourcePoint" />
            <mxPoint x="1580.2029252086595" y="424.80682841059416" as="targetPoint" />
          </mxGeometry>
        </mxCell>
        <mxCell id="RtJh5RVURmU-iK2Eab-f-99" value="" style="endArrow=none;html=1;rounded=0;strokeWidth=2;" parent="1" edge="1">
          <mxGeometry width="50" height="50" relative="1" as="geometry">
            <mxPoint x="210" y="318" as="sourcePoint" />
            <mxPoint x="1582.3277907177226" y="318.21818144294315" as="targetPoint" />
          </mxGeometry>
        </mxCell>
        <mxCell id="RtJh5RVURmU-iK2Eab-f-100" value="" style="endArrow=none;html=1;rounded=0;strokeWidth=2;fontFamily=isocpeur;" parent="1" edge="1">
          <mxGeometry width="50" height="50" relative="1" as="geometry">
            <mxPoint x="810.1954897739668" y="439.51883226439026" as="sourcePoint" />
            <mxPoint x="810.1954897739668" y="424.6631061928716" as="targetPoint" />
          </mxGeometry>
        </mxCell>
        <mxCell id="RtJh5RVURmU-iK2Eab-f-101" value="" style="endArrow=none;html=1;rounded=0;strokeWidth=2;fontFamily=isocpeur;" parent="1" edge="1">
          <mxGeometry width="50" height="50" relative="1" as="geometry">
            <mxPoint x="1318.4641638709627" y="440.62019439997493" as="sourcePoint" />
            <mxPoint x="1318.4641638709627" y="425.7644683284563" as="targetPoint" />
          </mxGeometry>
        </mxCell>
        <mxCell id="RtJh5RVURmU-iK2Eab-f-102" value="" style="endArrow=none;html=1;rounded=0;strokeWidth=2;fontFamily=isocpeur;" parent="1" edge="1">
          <mxGeometry width="50" height="50" relative="1" as="geometry">
            <mxPoint x="1827.235622222517" y="438.1848279696634" as="sourcePoint" />
            <mxPoint x="1827.3418427782585" y="425.416331411193" as="targetPoint" />
          </mxGeometry>
        </mxCell>
        <mxCell id="RtJh5RVURmU-iK2Eab-f-105" value="" style="endArrow=none;html=1;rounded=0;strokeWidth=2;fontFamily=isocpeur;" parent="1" edge="1">
          <mxGeometry width="50" height="50" relative="1" as="geometry">
            <mxPoint x="1828.3103798143927" y="610.2413826198854" as="sourcePoint" />
            <mxPoint x="1952.2343615125671" y="610.2413826198854" as="targetPoint" />
          </mxGeometry>
        </mxCell>
        <mxCell id="RtJh5RVURmU-iK2Eab-f-106" value="" style="endArrow=openThin;html=1;rounded=0;strokeWidth=2;endFill=0;movable=1;resizable=1;rotatable=1;deletable=1;editable=1;locked=0;connectable=1;fontFamily=isocpeur;endSize=13;" parent="1" edge="1">
          <mxGeometry width="50" height="50" relative="1" as="geometry">
            <mxPoint x="1952.8102619813644" y="611" as="sourcePoint" />
            <mxPoint x="1952.9384001573585" y="320" as="targetPoint" />
          </mxGeometry>
        </mxCell>
        <mxCell id="RtJh5RVURmU-iK2Eab-f-107" value="" style="endArrow=openThin;html=1;rounded=0;strokeWidth=2;endFill=0;fontFamily=isocpeur;startSize=6;endSize=12;" parent="1" edge="1">
          <mxGeometry width="50" height="50" relative="1" as="geometry">
            <mxPoint x="1954.8087816389943" y="324.75046767381855" as="sourcePoint" />
            <mxPoint x="1583.0368365444717" y="324.75046767381855" as="targetPoint" />
          </mxGeometry>
        </mxCell>
        <mxCell id="RtJh5RVURmU-iK2Eab-f-108" value="" style="endArrow=none;html=1;rounded=0;strokeWidth=2;fontFamily=isocpeur;" parent="1" edge="1">
          <mxGeometry width="50" height="50" relative="1" as="geometry">
            <mxPoint x="1828.948892465122" y="610.2413826198854" as="sourcePoint" />
            <mxPoint x="1828.8367707673954" y="587.9577935126076" as="targetPoint" />
          </mxGeometry>
        </mxCell>
        <mxCell id="RtJh5RVURmU-iK2Eab-f-111" value="" style="endArrow=none;html=1;rounded=0;strokeWidth=2;fontFamily=isocpeur;endFill=0;startArrow=openThin;startFill=0;startSize=10;" parent="1" edge="1">
          <mxGeometry width="50" height="50" relative="1" as="geometry">
            <mxPoint x="490" y="678" as="sourcePoint" />
            <mxPoint x="1879.0010900856073" y="678.2353203964466" as="targetPoint" />
          </mxGeometry>
        </mxCell>
        <mxCell id="RtJh5RVURmU-iK2Eab-f-112" value="" style="endArrow=none;html=1;rounded=0;strokeWidth=2;fontFamily=isocpeur;" parent="1" edge="1">
          <mxGeometry width="50" height="50" relative="1" as="geometry">
            <mxPoint x="1582.163013136362" y="680.667822822322" as="sourcePoint" />
            <mxPoint x="1582.0213857287067" y="584.6471265222996" as="targetPoint" />
          </mxGeometry>
        </mxCell>
        <mxCell id="RtJh5RVURmU-iK2Eab-f-113" value="" style="endArrow=none;html=1;rounded=0;strokeWidth=2;exitX=0.506;exitY=0;exitDx=0;exitDy=0;exitPerimeter=0;fontFamily=isocpeur;" parent="1" edge="1">
          <mxGeometry width="50" height="50" relative="1" as="geometry">
            <mxPoint x="1581.2651307660726" y="521.8601751790521" as="sourcePoint" />
            <mxPoint x="1581.306438759972" y="497.4893565587257" as="targetPoint" />
          </mxGeometry>
        </mxCell>
        <mxCell id="RtJh5RVURmU-iK2Eab-f-123" value="" style="endArrow=none;html=1;rounded=0;strokeWidth=2;fontFamily=isocpeur;exitX=0;exitY=0;exitDx=89.17811004334237;exitDy=0;exitPerimeter=0;entryX=0.556;entryY=0.997;entryDx=0;entryDy=0;entryPerimeter=0;" parent="1" edge="1">
          <mxGeometry width="50" height="50" relative="1" as="geometry">
            <mxPoint x="1584" y="348.22153879870984" as="sourcePoint" />
            <mxPoint x="1584" y="299.2586168058659" as="targetPoint" />
            <Array as="points" />
          </mxGeometry>
        </mxCell>
        <mxCell id="RtJh5RVURmU-iK2Eab-f-124" value="Главная форма" style="shape=display;whiteSpace=wrap;html=1;fontSize=22;fontFamily=isocpeur;" parent="1" vertex="1">
          <mxGeometry x="1493.4899126728783" y="348.22153879870984" width="168.05094221367986" height="63.41491536083015" as="geometry" />
        </mxCell>
        <mxCell id="RtJh5RVURmU-iK2Eab-f-126" value="Играть" style="shape=display;whiteSpace=wrap;html=1;fontSize=22;fontFamily=isocpeur;" parent="1" vertex="1">
          <mxGeometry x="1492.3374553963147" y="433.2902792401771" width="168.05094221367986" height="63.41491536083015" as="geometry" />
        </mxCell>
        <mxCell id="RtJh5RVURmU-iK2Eab-f-127" value="Включить музыку" style="shape=display;whiteSpace=wrap;html=1;fontSize=22;fontFamily=isocpeur;" parent="1" vertex="1">
          <mxGeometry x="1736.6961835123052" y="437.43686008452005" width="168.05094221367986" height="63.41491536083015" as="geometry" />
        </mxCell>
        <mxCell id="RtJh5RVURmU-iK2Eab-f-128" value="&lt;div style=&quot;font-size: 22px;&quot;&gt;*.mp3&lt;/div&gt;" style="shape=cylinder3;whiteSpace=wrap;html=1;boundedLbl=1;backgroundOutline=1;size=15;rotation=0;textDirection=ltr;direction=south;fontSize=22;fontFamily=isocpeur;" parent="1" vertex="1">
          <mxGeometry x="1747.2005481970498" y="519.7843166214845" width="157.5465775289349" height="67.21674583474281" as="geometry" />
        </mxCell>
        <mxCell id="RtJh5RVURmU-iK2Eab-f-129" value="Справка" style="shape=display;whiteSpace=wrap;html=1;fontSize=22;fontFamily=isocpeur;strokeWidth=1;" parent="1" vertex="1">
          <mxGeometry x="1232.9967826849957" y="440.8460581921093" width="168.05094221367986" height="63.41491536083015" as="geometry" />
        </mxCell>
        <mxCell id="NguQTIr1SdlHwa-LjI-z-53" style="edgeStyle=orthogonalEdgeStyle;rounded=0;orthogonalLoop=1;jettySize=auto;html=1;exitX=1;exitY=0.5;exitDx=0;exitDy=0;exitPerimeter=0;strokeWidth=2;endArrow=openThin;endFill=0;endSize=10;" parent="1" source="RtJh5RVURmU-iK2Eab-f-130" edge="1">
          <mxGeometry relative="1" as="geometry">
            <mxPoint x="1200" y="609" as="targetPoint" />
            <Array as="points">
              <mxPoint x="1316" y="609" />
              <mxPoint x="1200" y="609" />
            </Array>
          </mxGeometry>
        </mxCell>
        <mxCell id="RtJh5RVURmU-iK2Eab-f-130" value="&lt;div style=&quot;font-size: 22px;&quot;&gt;Spravka.chm&lt;/div&gt;" style="shape=cylinder3;whiteSpace=wrap;html=1;boundedLbl=1;backgroundOutline=1;size=15;rotation=0;textDirection=ltr;direction=south;fontSize=22;fontFamily=isocpeur;" parent="1" vertex="1">
          <mxGeometry x="1232.9967826849957" y="519.7843166214845" width="165.5287611248067" height="68.6915113082505" as="geometry" />
        </mxCell>
        <mxCell id="RtJh5RVURmU-iK2Eab-f-131" value="Первая локация" style="shape=display;whiteSpace=wrap;html=1;fontSize=22;fontFamily=isocpeur;" parent="1" vertex="1">
          <mxGeometry x="1490.0325408431872" y="519.7843166214845" width="168.05094221367986" height="63.41491536083015" as="geometry" />
        </mxCell>
        <mxCell id="RtJh5RVURmU-iK2Eab-f-132" value="&lt;div style=&quot;font-size: 22px;&quot;&gt;Yellow1.txt&lt;/div&gt;" style="shape=cylinder3;whiteSpace=wrap;html=1;boundedLbl=1;backgroundOutline=1;size=15;rotation=0;textDirection=ltr;direction=south;fontSize=22;fontFamily=isocpeur;" parent="1" vertex="1">
          <mxGeometry x="1500.536905527932" y="596.2231348652394" width="157.5465775289349" height="67.21674583474281" as="geometry" />
        </mxCell>
        <mxCell id="RtJh5RVURmU-iK2Eab-f-133" value="" style="endArrow=none;html=1;rounded=0;strokeWidth=2;fontFamily=isocpeur;" parent="1" edge="1">
          <mxGeometry width="50" height="50" relative="1" as="geometry">
            <mxPoint x="1878.0700222858718" y="701.2171748167876" as="sourcePoint" />
            <mxPoint x="1877.9579005881446" y="678.9335857095097" as="targetPoint" />
          </mxGeometry>
        </mxCell>
        <mxCell id="RtJh5RVURmU-iK2Eab-f-134" value="" style="endArrow=none;html=1;rounded=0;strokeWidth=2;fontFamily=isocpeur;" parent="1" edge="1">
          <mxGeometry width="50" height="50" relative="1" as="geometry">
            <mxPoint x="491" y="927" as="sourcePoint" />
            <mxPoint x="490.6738994182124" y="677.848865545234" as="targetPoint" />
          </mxGeometry>
        </mxCell>
        <mxCell id="RtJh5RVURmU-iK2Eab-f-135" value="&lt;span style=&quot;font-family: ISOCPEUR;&quot;&gt;«&lt;/span&gt;Уроки&lt;span style=&quot;font-family: ISOCPEUR;&quot;&gt;»&lt;/span&gt;" style="shape=display;whiteSpace=wrap;html=1;fontSize=22;fontFamily=isocpeur;" parent="1" vertex="1">
          <mxGeometry x="398.9986775581833" y="688.4608936066816" width="168.05094221367986" height="63.41491536083015" as="geometry" />
        </mxCell>
        <mxCell id="G5mgxXajQfwZSKG5oSLH-16" style="edgeStyle=orthogonalEdgeStyle;rounded=0;orthogonalLoop=1;jettySize=auto;html=1;exitX=0;exitY=0;exitDx=89.17811004334237;exitDy=63.41491536083015;exitPerimeter=0;strokeWidth=2;endArrow=openThin;endFill=0;endSize=9;" parent="1" source="RtJh5RVURmU-iK2Eab-f-136" edge="1">
          <mxGeometry relative="1" as="geometry">
            <mxPoint x="2400" y="410" as="targetPoint" />
          </mxGeometry>
        </mxCell>
        <mxCell id="RtJh5RVURmU-iK2Eab-f-136" value="&lt;span style=&quot;font-family: ISOCPEUR;&quot;&gt;«&lt;/span&gt;Улица&lt;span style=&quot;font-family: ISOCPEUR;&quot;&gt;»&lt;/span&gt;" style="shape=display;whiteSpace=wrap;html=1;fontSize=22;fontFamily=isocpeur;" parent="1" vertex="1">
          <mxGeometry x="1788.3961726486439" y="695.817686322901" width="168.05094221367986" height="63.41491536083015" as="geometry" />
        </mxCell>
        <mxCell id="RtJh5RVURmU-iK2Eab-f-137" value="&lt;div style=&quot;font-size: 22px;&quot;&gt;Yroki.txt&lt;/div&gt;" style="shape=cylinder3;whiteSpace=wrap;html=1;boundedLbl=1;backgroundOutline=1;size=15;rotation=0;textDirection=ltr;direction=south;fontSize=22;fontFamily=isocpeur;" parent="1" vertex="1">
          <mxGeometry x="407.5030422429279" y="761.5660053075168" width="157.5465775289349" height="67.21674583474281" as="geometry" />
        </mxCell>
        <mxCell id="RtJh5RVURmU-iK2Eab-f-138" value="&lt;div style=&quot;&quot;&gt;&lt;span style=&quot;background-color: initial;&quot;&gt;Переход на локацию&lt;/span&gt;&lt;/div&gt;" style="shape=display;whiteSpace=wrap;html=1;fontSize=22;fontFamily=isocpeur;align=center;" parent="1" vertex="1">
          <mxGeometry x="402.2508599005557" y="843.5782878732294" width="168.05094221367986" height="63.41491536083015" as="geometry" />
        </mxCell>
        <mxCell id="RtJh5RVURmU-iK2Eab-f-347" style="edgeStyle=orthogonalEdgeStyle;rounded=0;orthogonalLoop=1;jettySize=auto;html=1;endArrow=none;endFill=0;strokeWidth=2;exitX=0;exitY=0;exitDx=89.17811004334237;exitDy=63.41491536083014;exitPerimeter=0;" parent="1" source="RtJh5RVURmU-iK2Eab-f-205" edge="1">
          <mxGeometry relative="1" as="geometry">
            <mxPoint x="383.68421052631584" y="1537" as="targetPoint" />
            <mxPoint x="384" y="1630" as="sourcePoint" />
            <Array as="points">
              <mxPoint x="385" y="1582" />
              <mxPoint x="384" y="1582" />
            </Array>
          </mxGeometry>
        </mxCell>
        <mxCell id="RtJh5RVURmU-iK2Eab-f-205" value="&lt;div style=&quot;&quot;&gt;&lt;span style=&quot;font-family: ISOCPEUR; background-color: initial;&quot;&gt;«&lt;/span&gt;&lt;span style=&quot;background-color: initial;&quot;&gt;Да&lt;/span&gt;&lt;span style=&quot;font-family: ISOCPEUR; background-color: initial;&quot;&gt;»&lt;/span&gt;&lt;/div&gt;" style="shape=display;whiteSpace=wrap;html=1;fontSize=22;fontFamily=isocpeur;align=center;" parent="1" vertex="1">
          <mxGeometry x="295.7942744327917" y="1550.0040533896167" width="168.05094221367986" height="63.41491536083015" as="geometry" />
        </mxCell>
        <mxCell id="RtJh5RVURmU-iK2Eab-f-348" style="edgeStyle=orthogonalEdgeStyle;rounded=0;orthogonalLoop=1;jettySize=auto;html=1;endArrow=none;endFill=0;strokeWidth=2;exitX=0.489;exitY=-0.002;exitDx=0;exitDy=0;exitPerimeter=0;" parent="1" source="RtJh5RVURmU-iK2Eab-f-206" edge="1">
          <mxGeometry relative="1" as="geometry">
            <mxPoint x="582" y="1535" as="targetPoint" />
            <mxPoint x="582.0333333333333" y="1545.0040533896165" as="sourcePoint" />
          </mxGeometry>
        </mxCell>
        <mxCell id="NguQTIr1SdlHwa-LjI-z-26" style="edgeStyle=orthogonalEdgeStyle;rounded=0;orthogonalLoop=1;jettySize=auto;html=1;exitX=0;exitY=0;exitDx=89.17811004334237;exitDy=63.41491536083015;exitPerimeter=0;strokeWidth=2;endArrow=none;endFill=0;entryX=1.078;entryY=0.543;entryDx=0;entryDy=0;entryPerimeter=0;" parent="1" source="RtJh5RVURmU-iK2Eab-f-206" target="NguQTIr1SdlHwa-LjI-z-20" edge="1">
          <mxGeometry relative="1" as="geometry">
            <mxPoint x="1400" y="1860" as="targetPoint" />
            <Array as="points">
              <mxPoint x="589" y="1800" />
              <mxPoint x="1558" y="1800" />
            </Array>
          </mxGeometry>
        </mxCell>
        <mxCell id="RtJh5RVURmU-iK2Eab-f-206" value="&lt;div style=&quot;&quot;&gt;&lt;span style=&quot;font-family: ISOCPEUR; background-color: initial;&quot;&gt;«&lt;/span&gt;&lt;span style=&quot;background-color: initial;&quot;&gt;Нет&lt;/span&gt;&lt;span style=&quot;font-family: ISOCPEUR; background-color: initial;&quot;&gt;»&lt;/span&gt;&lt;/div&gt;" style="shape=display;whiteSpace=wrap;html=1;fontSize=22;fontFamily=isocpeur;align=center;" parent="1" vertex="1">
          <mxGeometry x="500.0019583838219" y="1550.0040533896167" width="168.05094221367986" height="63.41491536083015" as="geometry" />
        </mxCell>
        <UserObject label="" tags="Фон" id="RtJh5RVURmU-iK2Eab-f-212">
          <mxCell style="vsdxID=11;edgeStyle=none;startArrow=none;endArrow=none;startSize=5;endSize=5;strokeWidth=3;spacingTop=0;spacingBottom=0;spacingLeft=0;spacingRight=0;verticalAlign=middle;html=1;labelBackgroundColor=none;rounded=0;fontColor=default;fontFamily=isocpeur;movable=0;resizable=0;rotatable=0;deletable=0;editable=0;locked=1;connectable=0;" parent="1" edge="1">
            <mxGeometry relative="1" as="geometry">
              <Array as="points" />
              <mxPoint x="557.7685070822713" y="80" as="sourcePoint" />
              <mxPoint x="557.7685070822713" y="20" as="targetPoint" />
            </mxGeometry>
          </mxCell>
        </UserObject>
        <mxCell id="RtJh5RVURmU-iK2Eab-f-292" style="edgeStyle=orthogonalEdgeStyle;rounded=0;orthogonalLoop=1;jettySize=auto;html=1;exitX=0;exitY=0;exitDx=89.17811004334237;exitDy=0;exitPerimeter=0;strokeWidth=2;endArrow=none;endFill=0;" parent="1" source="RtJh5RVURmU-iK2Eab-f-139" edge="1">
          <mxGeometry relative="1" as="geometry">
            <mxPoint x="491" y="928" as="targetPoint" />
            <Array as="points">
              <mxPoint x="717" y="698" />
              <mxPoint x="611" y="698" />
              <mxPoint x="611" y="928" />
            </Array>
          </mxGeometry>
        </mxCell>
        <mxCell id="RtJh5RVURmU-iK2Eab-f-294" style="edgeStyle=orthogonalEdgeStyle;rounded=0;orthogonalLoop=1;jettySize=auto;html=1;exitX=0;exitY=0;exitDx=89.17811004334237;exitDy=63.41491536083015;exitPerimeter=0;strokeWidth=2;endArrow=none;endFill=0;entryX=0;entryY=0;entryDx=89.17811004334237;entryDy=0;entryPerimeter=0;" parent="1" source="RtJh5RVURmU-iK2Eab-f-139" target="RtJh5RVURmU-iK2Eab-f-141" edge="1">
          <mxGeometry relative="1" as="geometry">
            <mxPoint x="717" y="960" as="targetPoint" />
          </mxGeometry>
        </mxCell>
        <mxCell id="RtJh5RVURmU-iK2Eab-f-139" value="&lt;div style=&quot;&quot;&gt;&lt;span style=&quot;background-color: initial;&quot;&gt;Школа&lt;/span&gt;&lt;/div&gt;" style="shape=display;whiteSpace=wrap;html=1;fontSize=22;fontFamily=isocpeur;align=center;" parent="1" vertex="1">
          <mxGeometry x="627.4918631178707" y="717.9964253350549" width="168.05094221367986" height="63.41491536083015" as="geometry" />
        </mxCell>
        <mxCell id="RtJh5RVURmU-iK2Eab-f-140" value="&lt;div style=&quot;font-size: 22px;&quot;&gt;Yellow2.txt&lt;/div&gt;" style="shape=cylinder3;whiteSpace=wrap;html=1;boundedLbl=1;backgroundOutline=1;size=15;rotation=0;textDirection=ltr;direction=south;fontSize=22;fontFamily=isocpeur;" parent="1" vertex="1">
          <mxGeometry x="637.9962278026155" y="795.3641542991361" width="157.5465775289349" height="67.21674583474281" as="geometry" />
        </mxCell>
        <mxCell id="RtJh5RVURmU-iK2Eab-f-141" value="Загрузка фона" style="shape=display;whiteSpace=wrap;html=1;fontSize=22;fontFamily=isocpeur;align=center;" parent="1" vertex="1">
          <mxGeometry x="628.0208599005557" y="877.3477076673132" width="168.05094221367986" height="63.41491536083015" as="geometry" />
        </mxCell>
        <mxCell id="RtJh5RVURmU-iK2Eab-f-330" style="edgeStyle=orthogonalEdgeStyle;rounded=0;orthogonalLoop=1;jettySize=auto;html=1;exitX=0;exitY=0;exitDx=89.17811004334237;exitDy=0;exitPerimeter=0;strokeWidth=2;endArrow=none;endFill=0;" parent="1" source="RtJh5RVURmU-iK2Eab-f-142" target="RtJh5RVURmU-iK2Eab-f-141" edge="1">
          <mxGeometry relative="1" as="geometry">
            <mxPoint x="720" y="950" as="targetPoint" />
            <Array as="points">
              <mxPoint x="1093" y="695" />
              <mxPoint x="870" y="695" />
              <mxPoint x="870" y="960" />
              <mxPoint x="720" y="960" />
            </Array>
          </mxGeometry>
        </mxCell>
        <mxCell id="RtJh5RVURmU-iK2Eab-f-331" style="edgeStyle=orthogonalEdgeStyle;rounded=0;orthogonalLoop=1;jettySize=auto;html=1;strokeWidth=2;endArrow=none;endFill=0;" parent="1" edge="1">
          <mxGeometry relative="1" as="geometry">
            <mxPoint x="1080" y="1034" as="targetPoint" />
            <mxPoint x="1075.8888888888887" y="778.135556169631" as="sourcePoint" />
            <Array as="points">
              <mxPoint x="1097" y="778" />
              <mxPoint x="1097" y="1034" />
            </Array>
          </mxGeometry>
        </mxCell>
        <mxCell id="RtJh5RVURmU-iK2Eab-f-142" value="&lt;div style=&quot;&quot;&gt;&lt;span style=&quot;background-color: initial;&quot;&gt;Новый фон&lt;/span&gt;&lt;/div&gt;" style="shape=display;whiteSpace=wrap;html=1;fontSize=22;fontFamily=isocpeur;align=center;" parent="1" vertex="1">
          <mxGeometry x="1003.7518631178707" y="714.720640808801" width="168.05094221367986" height="63.41491536083015" as="geometry" />
        </mxCell>
        <mxCell id="RtJh5RVURmU-iK2Eab-f-143" value="&lt;div style=&quot;font-size: 22px;&quot;&gt;Rebekka1.txt&lt;/div&gt;" style="shape=cylinder3;whiteSpace=wrap;html=1;boundedLbl=1;backgroundOutline=1;size=15;rotation=0;textDirection=ltr;direction=south;fontSize=22;fontFamily=isocpeur;" parent="1" vertex="1">
          <mxGeometry x="1014.7852245853005" y="791.8106541967021" width="157.5465775289349" height="67.21674583474281" as="geometry" />
        </mxCell>
        <mxCell id="RtJh5RVURmU-iK2Eab-f-144" value="&lt;div style=&quot;&quot;&gt;&lt;span style=&quot;background-color: initial;&quot;&gt;Новый текст&lt;/span&gt;&lt;/div&gt;" style="shape=display;whiteSpace=wrap;html=1;fontSize=22;fontFamily=isocpeur;align=center;" parent="1" vertex="1">
          <mxGeometry x="1003.7518631178707" y="868.4218476256727" width="168.05094221367986" height="63.41491536083015" as="geometry" />
        </mxCell>
        <mxCell id="RtJh5RVURmU-iK2Eab-f-145" value="&lt;div style=&quot;font-size: 22px;&quot;&gt;Answer1.txt&lt;/div&gt;" style="shape=cylinder3;whiteSpace=wrap;html=1;boundedLbl=1;backgroundOutline=1;size=15;rotation=0;textDirection=ltr;direction=south;fontSize=22;fontFamily=isocpeur;" parent="1" vertex="1">
          <mxGeometry x="1016.9767826849957" y="946.948320890367" width="157.5465775289349" height="67.21674583474281" as="geometry" />
        </mxCell>
        <mxCell id="RtJh5RVURmU-iK2Eab-f-146" value="" style="endArrow=none;html=1;rounded=0;strokeWidth=2;fontFamily=isocpeur;" parent="1" edge="1">
          <mxGeometry width="50" height="50" relative="1" as="geometry">
            <mxPoint x="931" y="1034.1834945481596" as="sourcePoint" />
            <mxPoint x="1262.0651325382505" y="1034.1834945481596" as="targetPoint" />
          </mxGeometry>
        </mxCell>
        <mxCell id="RtJh5RVURmU-iK2Eab-f-341" style="edgeStyle=orthogonalEdgeStyle;rounded=0;orthogonalLoop=1;jettySize=auto;html=1;strokeWidth=2;endArrow=none;endFill=0;" parent="1" edge="1">
          <mxGeometry relative="1" as="geometry">
            <mxPoint x="1262.0262733464256" y="1033" as="targetPoint" />
            <mxPoint x="1262.090909090909" y="1052.9951556283977" as="sourcePoint" />
          </mxGeometry>
        </mxCell>
        <mxCell id="G5mgxXajQfwZSKG5oSLH-2" style="edgeStyle=orthogonalEdgeStyle;rounded=0;orthogonalLoop=1;jettySize=auto;html=1;exitX=0;exitY=0;exitDx=89.17811004334237;exitDy=63.41491536083015;exitPerimeter=0;strokeWidth=2;endArrow=openThin;endFill=0;startSize=6;endSize=10;" parent="1" source="RtJh5RVURmU-iK2Eab-f-147" edge="1">
          <mxGeometry relative="1" as="geometry">
            <mxPoint x="1440" y="790" as="targetPoint" />
            <Array as="points">
              <mxPoint x="1269" y="1133" />
              <mxPoint x="1440" y="1133" />
              <mxPoint x="1440" y="820" />
            </Array>
          </mxGeometry>
        </mxCell>
        <mxCell id="RtJh5RVURmU-iK2Eab-f-147" value="&lt;div style=&quot;&quot;&gt;&lt;span style=&quot;font-family: ISOCPEUR; background-color: initial;&quot;&gt;«&lt;/span&gt;&lt;span style=&quot;background-color: initial;&quot;&gt;Молчать&lt;/span&gt;&lt;span style=&quot;font-family: ISOCPEUR; background-color: initial;&quot;&gt;»&lt;/span&gt;&lt;/div&gt;" style="shape=display;whiteSpace=wrap;html=1;fontSize=22;fontFamily=isocpeur;align=center;" parent="1" vertex="1">
          <mxGeometry x="1180.0008022395855" y="1049.9951556283977" width="168.05094221367986" height="63.41491536083015" as="geometry" />
        </mxCell>
        <mxCell id="RtJh5RVURmU-iK2Eab-f-332" style="edgeStyle=orthogonalEdgeStyle;rounded=0;orthogonalLoop=1;jettySize=auto;html=1;exitX=0;exitY=0;exitDx=89.17811004334237;exitDy=0;exitPerimeter=0;endArrow=none;endFill=0;strokeWidth=2;" parent="1" edge="1">
          <mxGeometry relative="1" as="geometry">
            <mxPoint x="932" y="1033" as="targetPoint" />
            <mxPoint x="931.8381117146748" y="1052.996049282723" as="sourcePoint" />
          </mxGeometry>
        </mxCell>
        <mxCell id="RtJh5RVURmU-iK2Eab-f-149" value="&lt;div style=&quot;&quot;&gt;&lt;span style=&quot;font-family: ISOCPEUR; background-color: initial;&quot;&gt;«&lt;/span&gt;&lt;span style=&quot;background-color: initial;&quot;&gt;Ответить&lt;/span&gt;&lt;span style=&quot;font-family: ISOCPEUR; background-color: initial;&quot;&gt;»&lt;/span&gt;&lt;/div&gt;" style="shape=display;whiteSpace=wrap;html=1;fontSize=22;fontFamily=isocpeur;align=center;" parent="1" vertex="1">
          <mxGeometry x="837.6600016713323" y="1049.996049282723" width="168.05094221367986" height="63.41491536083015" as="geometry" />
        </mxCell>
        <mxCell id="RtJh5RVURmU-iK2Eab-f-334" style="edgeStyle=orthogonalEdgeStyle;rounded=0;orthogonalLoop=1;jettySize=auto;html=1;exitX=0;exitY=0;exitDx=89.17811004334237;exitDy=0;exitPerimeter=0;endArrow=none;endFill=0;strokeWidth=2;" parent="1" edge="1">
          <mxGeometry relative="1" as="geometry">
            <mxPoint x="833" y="1450" as="targetPoint" />
            <mxPoint x="832.7370604465514" y="1467.3184156061957" as="sourcePoint" />
          </mxGeometry>
        </mxCell>
        <mxCell id="RtJh5RVURmU-iK2Eab-f-156" value="&lt;div style=&quot;&quot;&gt;&lt;span style=&quot;font-family: ISOCPEUR; background-color: initial;&quot;&gt;«&lt;/span&gt;&lt;span style=&quot;background-color: initial;&quot;&gt;Мечта&lt;/span&gt;&lt;span style=&quot;font-family: ISOCPEUR; background-color: initial;&quot;&gt;»&lt;/span&gt;&lt;/div&gt;" style="shape=display;whiteSpace=wrap;html=1;fontSize=22;fontFamily=isocpeur;align=center;" parent="1" vertex="1">
          <mxGeometry x="738.5589504032089" y="1467.3184156061957" width="168.05094221367986" height="63.41491536083015" as="geometry" />
        </mxCell>
        <mxCell id="RtJh5RVURmU-iK2Eab-f-326" style="edgeStyle=orthogonalEdgeStyle;rounded=0;orthogonalLoop=1;jettySize=auto;html=1;exitX=0.568;exitY=0.421;exitDx=0;exitDy=0;exitPerimeter=0;strokeWidth=2;endArrow=none;endFill=0;" parent="1" edge="1">
          <mxGeometry relative="1" as="geometry">
            <mxPoint x="934" y="1450" as="targetPoint" />
            <mxPoint x="934.0229368487023" y="1240.0009264332439" as="sourcePoint" />
          </mxGeometry>
        </mxCell>
        <mxCell id="RtJh5RVURmU-iK2Eab-f-151" value="Загрузка фона" style="shape=display;whiteSpace=wrap;html=1;fontSize=22;fontFamily=isocpeur;align=center;" parent="1" vertex="1">
          <mxGeometry x="841.5700016713324" y="1213.3032470663343" width="168.05094221367986" height="63.41491536083015" as="geometry" />
        </mxCell>
        <mxCell id="RtJh5RVURmU-iK2Eab-f-152" value="&lt;div style=&quot;&quot;&gt;&lt;span style=&quot;background-color: initial;&quot;&gt;Новый фон&lt;/span&gt;&lt;/div&gt;" style="shape=display;whiteSpace=wrap;html=1;fontSize=22;fontFamily=isocpeur;align=center;" parent="1" vertex="1">
          <mxGeometry x="840.0410048886474" y="1290.3932604542356" width="168.05094221367986" height="63.41491536083015" as="geometry" />
        </mxCell>
        <mxCell id="RtJh5RVURmU-iK2Eab-f-153" value="" style="endArrow=none;html=1;rounded=0;strokeWidth=2;fontFamily=isocpeur;" parent="1" target="RtJh5RVURmU-iK2Eab-f-154" edge="1">
          <mxGeometry width="50" height="50" relative="1" as="geometry">
            <mxPoint x="937.6536352294715" y="1425.6790516506185" as="sourcePoint" />
            <mxPoint x="940.5064705832267" y="1042.141899762571" as="targetPoint" />
          </mxGeometry>
        </mxCell>
        <mxCell id="RtJh5RVURmU-iK2Eab-f-154" value="&lt;div style=&quot;font-size: 22px;&quot;&gt;Yellow3.txt&lt;/div&gt;" style="shape=cylinder3;whiteSpace=wrap;html=1;boundedLbl=1;backgroundOutline=1;size=15;rotation=0;textDirection=ltr;direction=south;fontSize=22;fontFamily=isocpeur;" parent="1" vertex="1">
          <mxGeometry x="848.0743663560772" y="1366.496904726739" width="157.5465775289349" height="67.21674583474281" as="geometry" />
        </mxCell>
        <mxCell id="RtJh5RVURmU-iK2Eab-f-155" value="" style="endArrow=none;html=1;rounded=0;strokeWidth=2;fontFamily=isocpeur;" parent="1" edge="1">
          <mxGeometry width="50" height="50" relative="1" as="geometry">
            <mxPoint x="833.77" y="1451.3066623352488" as="sourcePoint" />
            <mxPoint x="1033.77" y="1451.3066623352488" as="targetPoint" />
          </mxGeometry>
        </mxCell>
        <mxCell id="RtJh5RVURmU-iK2Eab-f-296" style="edgeStyle=orthogonalEdgeStyle;rounded=0;orthogonalLoop=1;jettySize=auto;html=1;strokeWidth=2;endArrow=none;endFill=0;" parent="1" edge="1">
          <mxGeometry relative="1" as="geometry">
            <mxPoint x="1033.7948330756699" y="1450.3199999999997" as="targetPoint" />
            <mxPoint x="1033.85" y="1470.315226284119" as="sourcePoint" />
          </mxGeometry>
        </mxCell>
        <mxCell id="G5mgxXajQfwZSKG5oSLH-3" style="edgeStyle=orthogonalEdgeStyle;rounded=0;orthogonalLoop=1;jettySize=auto;html=1;exitX=0;exitY=0;exitDx=89.17811004334237;exitDy=63.41491536083015;exitPerimeter=0;strokeWidth=2;endArrow=openThin;endFill=0;endSize=10;" parent="1" source="RtJh5RVURmU-iK2Eab-f-157" edge="1">
          <mxGeometry relative="1" as="geometry">
            <mxPoint x="1270" y="1130" as="targetPoint" />
          </mxGeometry>
        </mxCell>
        <mxCell id="RtJh5RVURmU-iK2Eab-f-157" value="&lt;div style=&quot;&quot;&gt;&lt;span style=&quot;font-family: ISOCPEUR; background-color: initial;&quot;&gt;«&lt;/span&gt;&lt;span style=&quot;background-color: initial;&quot;&gt;Университет&lt;/span&gt;&lt;span style=&quot;font-family: ISOCPEUR; background-color: initial;&quot;&gt;»&lt;/span&gt;&lt;/div&gt;" style="shape=display;whiteSpace=wrap;html=1;fontSize=22;fontFamily=isocpeur;align=center;" parent="1" vertex="1">
          <mxGeometry x="946.7693619688296" y="1467.315226284119" width="168.05094221367986" height="63.41491536083015" as="geometry" />
        </mxCell>
        <mxCell id="RtJh5RVURmU-iK2Eab-f-333" style="edgeStyle=orthogonalEdgeStyle;rounded=0;orthogonalLoop=1;jettySize=auto;html=1;exitX=0;exitY=0;exitDx=89.17811004334237;exitDy=63.41491536083015;exitPerimeter=0;entryX=0;entryY=0;entryDx=89.17811004334237;entryDy=0;entryPerimeter=0;endArrow=none;endFill=0;strokeWidth=2;" parent="1" edge="1">
          <mxGeometry relative="1" as="geometry">
            <mxPoint x="932.838111714675" y="1113.4109646435536" as="sourcePoint" />
            <mxPoint x="933.7481117146754" y="1213.3032470663343" as="targetPoint" />
          </mxGeometry>
        </mxCell>
        <mxCell id="RtJh5RVURmU-iK2Eab-f-150" value="&lt;div style=&quot;font-size: 22px;&quot;&gt;GA1.txt&lt;/div&gt;" style="shape=cylinder3;whiteSpace=wrap;html=1;boundedLbl=1;backgroundOutline=1;size=15;rotation=0;textDirection=ltr;direction=south;fontSize=22;fontFamily=isocpeur;" parent="1" vertex="1">
          <mxGeometry x="848.1643663560774" y="1126.0518115593334" width="157.5465775289349" height="67.21674583474281" as="geometry" />
        </mxCell>
        <mxCell id="RtJh5RVURmU-iK2Eab-f-335" style="edgeStyle=orthogonalEdgeStyle;rounded=0;orthogonalLoop=1;jettySize=auto;html=1;exitX=0;exitY=0;exitDx=89.17811004334237;exitDy=63.41491536083015;exitPerimeter=0;strokeWidth=2;endArrow=none;endFill=0;" parent="1" source="RtJh5RVURmU-iK2Eab-f-156" edge="1">
          <mxGeometry relative="1" as="geometry">
            <mxPoint x="828" y="1550" as="targetPoint" />
          </mxGeometry>
        </mxCell>
        <mxCell id="RtJh5RVURmU-iK2Eab-f-337" value="" style="endArrow=openThin;html=1;rounded=0;strokeWidth=2;endFill=0;jumpSize=6;startSize=7;endSize=9;" parent="1" edge="1">
          <mxGeometry width="50" height="50" relative="1" as="geometry">
            <mxPoint x="828.7" y="1551" as="sourcePoint" />
            <mxPoint x="699" y="1551" as="targetPoint" />
          </mxGeometry>
        </mxCell>
        <mxCell id="RtJh5RVURmU-iK2Eab-f-339" style="edgeStyle=orthogonalEdgeStyle;rounded=0;orthogonalLoop=1;jettySize=auto;html=1;strokeWidth=2;endArrow=openThin;endFill=0;endSize=9;" parent="1" edge="1">
          <mxGeometry relative="1" as="geometry">
            <mxPoint x="703" y="1422" as="sourcePoint" />
            <mxPoint x="480" y="1422" as="targetPoint" />
            <Array as="points">
              <mxPoint x="588" y="1422" />
            </Array>
          </mxGeometry>
        </mxCell>
        <mxCell id="RtJh5RVURmU-iK2Eab-f-290" value="" style="group" parent="1" connectable="0" vertex="1">
          <mxGeometry x="2374.000202231229" y="1249.9209001338793" width="488.0509422136797" height="405.07623957196824" as="geometry" />
        </mxCell>
        <mxCell id="RtJh5RVURmU-iK2Eab-f-273" style="edgeStyle=orthogonalEdgeStyle;rounded=0;orthogonalLoop=1;jettySize=auto;html=1;exitX=0;exitY=0;exitDx=89.17811004334237;exitDy=63.41491536083015;exitPerimeter=0;endArrow=none;endFill=0;strokeWidth=2;" parent="RtJh5RVURmU-iK2Eab-f-290" source="RtJh5RVURmU-iK2Eab-f-274" edge="1">
          <mxGeometry relative="1" as="geometry">
            <mxPoint x="259.88863170099785" y="66.22000000000003" as="sourcePoint" />
            <mxPoint x="254.45313110210463" y="76.64949902568446" as="targetPoint" />
          </mxGeometry>
        </mxCell>
        <mxCell id="G5mgxXajQfwZSKG5oSLH-38" style="edgeStyle=orthogonalEdgeStyle;rounded=0;orthogonalLoop=1;jettySize=auto;html=1;exitX=0;exitY=0;exitDx=89.17811004334237;exitDy=0;exitPerimeter=0;endArrow=none;endFill=0;strokeWidth=2;" parent="RtJh5RVURmU-iK2Eab-f-290" source="RtJh5RVURmU-iK2Eab-f-274" edge="1">
          <mxGeometry relative="1" as="geometry">
            <mxPoint x="-14.000202231229196" y="-29.920900133879286" as="targetPoint" />
            <Array as="points">
              <mxPoint x="254" y="-30" />
            </Array>
          </mxGeometry>
        </mxCell>
        <mxCell id="RtJh5RVURmU-iK2Eab-f-274" value="&lt;div style=&quot;&quot;&gt;&lt;span style=&quot;background-color: initial;&quot;&gt;Новый фон&lt;/span&gt;&lt;/div&gt;" style="shape=display;whiteSpace=wrap;html=1;fontSize=22;fontFamily=isocpeur;align=center;" parent="RtJh5RVURmU-iK2Eab-f-290" vertex="1">
          <mxGeometry x="165.2561317009986" width="168.05094221367986" height="63.41491536083015" as="geometry" />
        </mxCell>
        <mxCell id="RtJh5RVURmU-iK2Eab-f-275" style="edgeStyle=orthogonalEdgeStyle;rounded=0;orthogonalLoop=1;jettySize=auto;html=1;exitX=1;exitY=0.5;exitDx=0;exitDy=0;exitPerimeter=0;endArrow=none;endFill=0;strokeWidth=2;" parent="RtJh5RVURmU-iK2Eab-f-290" source="RtJh5RVURmU-iK2Eab-f-276" edge="1">
          <mxGeometry relative="1" as="geometry">
            <mxPoint x="254.10738311118484" y="156.13361220824117" as="targetPoint" />
          </mxGeometry>
        </mxCell>
        <mxCell id="RtJh5RVURmU-iK2Eab-f-276" value="&lt;div style=&quot;font-size: 22px;&quot;&gt;Orange.txt&lt;/div&gt;" style="shape=cylinder3;whiteSpace=wrap;html=1;boundedLbl=1;backgroundOutline=1;size=15;rotation=0;textDirection=ltr;direction=south;fontSize=22;fontFamily=isocpeur;" parent="RtJh5RVURmU-iK2Eab-f-290" vertex="1">
          <mxGeometry x="176.7604963857434" y="76.64949902568446" width="157.5465775289349" height="67.21674583474281" as="geometry" />
        </mxCell>
        <mxCell id="RtJh5RVURmU-iK2Eab-f-277" style="edgeStyle=orthogonalEdgeStyle;rounded=0;orthogonalLoop=1;jettySize=auto;html=1;exitX=0;exitY=0;exitDx=89.17811004334237;exitDy=0;exitPerimeter=0;endArrow=none;endFill=0;strokeWidth=2;" parent="RtJh5RVURmU-iK2Eab-f-290" edge="1">
          <mxGeometry relative="1" as="geometry">
            <mxPoint x="407.9136816469786" y="157.0912521261032" as="targetPoint" />
            <mxPoint x="407.5761796543402" y="167.62529122258684" as="sourcePoint" />
          </mxGeometry>
        </mxCell>
        <mxCell id="RtJh5RVURmU-iK2Eab-f-279" style="edgeStyle=orthogonalEdgeStyle;rounded=0;orthogonalLoop=1;jettySize=auto;html=1;exitX=0;exitY=0;exitDx=89.17811004334237;exitDy=0;exitPerimeter=0;endArrow=none;endFill=0;strokeWidth=2;" parent="RtJh5RVURmU-iK2Eab-f-290" source="RtJh5RVURmU-iK2Eab-f-280" edge="1">
          <mxGeometry relative="1" as="geometry">
            <mxPoint x="89.42564659674917" y="156.13361220824117" as="targetPoint" />
          </mxGeometry>
        </mxCell>
        <mxCell id="RtJh5RVURmU-iK2Eab-f-280" value="&lt;span style=&quot;font-family: ISOCPEUR;&quot;&gt;«&lt;/span&gt;Работать&lt;span style=&quot;font-family: ISOCPEUR;&quot;&gt;»&lt;/span&gt;" style="shape=display;whiteSpace=wrap;html=1;fontSize=22;fontFamily=isocpeur;" parent="RtJh5RVURmU-iK2Eab-f-290" vertex="1">
          <mxGeometry y="167.62529122258684" width="168.05094221367986" height="63.41491536083015" as="geometry" />
        </mxCell>
        <mxCell id="RtJh5RVURmU-iK2Eab-f-281" value="" style="endArrow=none;html=1;rounded=0;strokeWidth=2;fontFamily=isocpeur;" parent="RtJh5RVURmU-iK2Eab-f-290" edge="1">
          <mxGeometry width="50" height="50" relative="1" as="geometry">
            <mxPoint x="409.0278694689341" y="157.09241860874272" as="sourcePoint" />
            <mxPoint x="90.68516274599915" y="157.09241860874272" as="targetPoint" />
          </mxGeometry>
        </mxCell>
        <mxCell id="RtJh5RVURmU-iK2Eab-f-282" style="edgeStyle=orthogonalEdgeStyle;rounded=0;orthogonalLoop=1;jettySize=auto;html=1;exitX=0;exitY=0;exitDx=89.17811004334237;exitDy=63.41491536083015;exitPerimeter=0;entryX=0;entryY=0;entryDx=94.6325;entryDy=0;entryPerimeter=0;strokeWidth=2;endArrow=none;endFill=0;" parent="RtJh5RVURmU-iK2Eab-f-290" source="RtJh5RVURmU-iK2Eab-f-278" edge="1">
          <mxGeometry relative="1" as="geometry">
            <mxPoint x="409.9725065808716" y="258.04020658341733" as="sourcePoint" />
            <mxPoint x="409.9725065808716" y="269.32120481583274" as="targetPoint" />
            <Array as="points">
              <mxPoint x="406.9997977687708" y="219.99909986612056" />
              <mxPoint x="409.9997977687708" y="219.99909986612056" />
            </Array>
          </mxGeometry>
        </mxCell>
        <mxCell id="RtJh5RVURmU-iK2Eab-f-283" style="edgeStyle=orthogonalEdgeStyle;rounded=0;orthogonalLoop=1;jettySize=auto;html=1;entryX=0.5;entryY=0;entryDx=0;entryDy=0;endArrow=none;endFill=0;strokeWidth=2;" parent="RtJh5RVURmU-iK2Eab-f-290" edge="1">
          <mxGeometry relative="1" as="geometry">
            <mxPoint x="90.71979776877106" y="305.64035618487696" as="sourcePoint" />
            <mxPoint x="96.0089700413655" y="320.6178445002406" as="targetPoint" />
            <Array as="points">
              <mxPoint x="90.71979776877106" y="325.2290998661206" />
              <mxPoint x="95.71979776877106" y="325.2290998661206" />
            </Array>
          </mxGeometry>
        </mxCell>
        <mxCell id="RtJh5RVURmU-iK2Eab-f-284" value="&lt;div style=&quot;&quot;&gt;&lt;span style=&quot;background-color: initial;&quot;&gt;Директор&lt;/span&gt;&lt;/div&gt;" style="shape=display;whiteSpace=wrap;html=1;fontSize=22;fontFamily=isocpeur;align=center;" parent="RtJh5RVURmU-iK2Eab-f-290" vertex="1">
          <mxGeometry y="242.2254408240467" width="168.05094221367986" height="63.41491536083015" as="geometry" />
        </mxCell>
        <mxCell id="G5mgxXajQfwZSKG5oSLH-11" style="edgeStyle=orthogonalEdgeStyle;rounded=0;orthogonalLoop=1;jettySize=auto;html=1;exitX=0.5;exitY=1;exitDx=0;exitDy=0;endArrow=none;endFill=0;strokeWidth=2;" parent="RtJh5RVURmU-iK2Eab-f-290" source="RtJh5RVURmU-iK2Eab-f-285" edge="1">
          <mxGeometry relative="1" as="geometry">
            <mxPoint x="92.9997977687708" y="806" as="targetPoint" />
          </mxGeometry>
        </mxCell>
        <mxCell id="RtJh5RVURmU-iK2Eab-f-285" value="&lt;font style=&quot;font-size: 22px;&quot; face=&quot;isocpeur&quot;&gt;Вывод названия концовки&lt;/font&gt;" style="rounded=0;whiteSpace=wrap;html=1;" parent="RtJh5RVURmU-iK2Eab-f-290" vertex="1">
          <mxGeometry x="17.96699786905083" y="320.6178445002406" width="150.08394434462872" height="57.458395071727715" as="geometry" />
        </mxCell>
        <mxCell id="RtJh5RVURmU-iK2Eab-f-286" style="edgeStyle=orthogonalEdgeStyle;rounded=0;orthogonalLoop=1;jettySize=auto;html=1;exitX=0;exitY=0;exitDx=89.17811004334237;exitDy=63.41491536083015;exitPerimeter=0;entryX=0;entryY=0;entryDx=89.17811004334237;entryDy=0;entryPerimeter=0;endArrow=none;endFill=0;strokeWidth=2;" parent="RtJh5RVURmU-iK2Eab-f-290" source="RtJh5RVURmU-iK2Eab-f-280" target="RtJh5RVURmU-iK2Eab-f-284" edge="1">
          <mxGeometry relative="1" as="geometry" />
        </mxCell>
        <mxCell id="RtJh5RVURmU-iK2Eab-f-287" style="edgeStyle=orthogonalEdgeStyle;rounded=0;orthogonalLoop=1;jettySize=auto;html=1;entryX=0.5;entryY=0;entryDx=0;entryDy=0;endArrow=none;endFill=0;strokeWidth=2;" parent="RtJh5RVURmU-iK2Eab-f-290" edge="1">
          <mxGeometry relative="1" as="geometry">
            <mxPoint x="410.71979776877106" y="332.64035618487696" as="sourcePoint" />
            <mxPoint x="416.0089700413655" y="347.6178445002406" as="targetPoint" />
            <Array as="points">
              <mxPoint x="410.71979776877106" y="352.2290998661206" />
              <mxPoint x="415.71979776877106" y="352.2290998661206" />
            </Array>
          </mxGeometry>
        </mxCell>
        <mxCell id="RtJh5RVURmU-iK2Eab-f-288" value="&lt;div style=&quot;&quot;&gt;&lt;span style=&quot;background-color: initial;&quot;&gt;Нейтральная концовка&lt;/span&gt;&lt;/div&gt;" style="shape=display;whiteSpace=wrap;html=1;fontSize=22;fontFamily=isocpeur;align=center;" parent="RtJh5RVURmU-iK2Eab-f-290" vertex="1">
          <mxGeometry x="320" y="269.2254408240467" width="168.05094221367986" height="63.41491536083015" as="geometry" />
        </mxCell>
        <mxCell id="G5mgxXajQfwZSKG5oSLH-12" style="edgeStyle=orthogonalEdgeStyle;rounded=0;orthogonalLoop=1;jettySize=auto;html=1;exitX=0.5;exitY=1;exitDx=0;exitDy=0;strokeWidth=2;endArrow=none;endFill=0;" parent="RtJh5RVURmU-iK2Eab-f-290" source="RtJh5RVURmU-iK2Eab-f-289" edge="1">
          <mxGeometry relative="1" as="geometry">
            <mxPoint x="412.9997977687708" y="805" as="targetPoint" />
          </mxGeometry>
        </mxCell>
        <mxCell id="RtJh5RVURmU-iK2Eab-f-289" value="&lt;font style=&quot;font-size: 22px;&quot; face=&quot;isocpeur&quot;&gt;Вывод названия концовки&lt;/font&gt;" style="rounded=0;whiteSpace=wrap;html=1;" parent="RtJh5RVURmU-iK2Eab-f-290" vertex="1">
          <mxGeometry x="337.96699786905083" y="347.6178445002406" width="150.08394434462872" height="57.458395071727715" as="geometry" />
        </mxCell>
        <mxCell id="RtJh5RVURmU-iK2Eab-f-278" value="&lt;span style=&quot;font-family: ISOCPEUR;&quot;&gt;«&lt;/span&gt;Не знаю&lt;span style=&quot;font-family: Helvetica;&quot;&gt;&lt;font size=&quot;1&quot; style=&quot;&quot; face=&quot;ISOCPEUR&quot;&gt;&lt;span style=&quot;letter-spacing: 0px; font-size: 22px;&quot;&gt;»&lt;/span&gt;&lt;/font&gt;&lt;/span&gt;" style="shape=display;whiteSpace=wrap;html=1;fontSize=22;fontFamily=isocpeur;" parent="RtJh5RVURmU-iK2Eab-f-290" vertex="1">
          <mxGeometry x="317.3980696109975" y="167.62529122258684" width="168.05094221367986" height="63.41491536083015" as="geometry" />
        </mxCell>
        <mxCell id="NguQTIr1SdlHwa-LjI-z-35" value="" style="endArrow=none;html=1;rounded=0;strokeWidth=2;fontFamily=isocpeur;" parent="RtJh5RVURmU-iK2Eab-f-290" edge="1">
          <mxGeometry width="50" height="50" relative="1" as="geometry">
            <mxPoint x="411" y="246.0790998661207" as="sourcePoint" />
            <mxPoint x="225.9951627459991" y="246.08241860874273" as="targetPoint" />
          </mxGeometry>
        </mxCell>
        <mxCell id="NguQTIr1SdlHwa-LjI-z-36" value="" style="endArrow=openThin;html=1;rounded=0;endFill=0;endSize=10;strokeWidth=2;" parent="RtJh5RVURmU-iK2Eab-f-290" edge="1">
          <mxGeometry width="50" height="50" relative="1" as="geometry">
            <mxPoint x="115.9997977687708" y="157.61909986612068" as="sourcePoint" />
            <mxPoint x="85.9997977687708" y="157.8390998661207" as="targetPoint" />
          </mxGeometry>
        </mxCell>
        <mxCell id="RtJh5RVURmU-iK2Eab-f-340" style="edgeStyle=orthogonalEdgeStyle;rounded=0;orthogonalLoop=1;jettySize=auto;html=1;endArrow=none;endFill=0;strokeWidth=2;" parent="1" edge="1">
          <mxGeometry relative="1" as="geometry">
            <mxPoint x="481.53180503906765" y="1422" as="targetPoint" />
            <mxPoint x="481.55555555555543" y="1452.0009001338792" as="sourcePoint" />
          </mxGeometry>
        </mxCell>
        <mxCell id="RtJh5RVURmU-iK2Eab-f-338" style="edgeStyle=orthogonalEdgeStyle;rounded=0;orthogonalLoop=1;jettySize=auto;html=1;exitX=0;exitY=0;exitDx=89.17811004334237;exitDy=63.41491536083015;exitPerimeter=0;strokeWidth=2;endArrow=openThin;endFill=0;endSize=9;" parent="1" edge="1">
          <mxGeometry relative="1" as="geometry">
            <mxPoint x="702.01" y="1543" as="sourcePoint" />
            <mxPoint x="702" y="1422" as="targetPoint" />
            <Array as="points">
              <mxPoint x="702.01" y="1552" />
              <mxPoint x="702.01" y="1552" />
            </Array>
          </mxGeometry>
        </mxCell>
        <mxCell id="RtJh5RVURmU-iK2Eab-f-343" value="" style="group" parent="1" connectable="0" vertex="1">
          <mxGeometry x="549.9982718422267" y="1810.0021522599827" width="168.05094221367983" height="73.94895445731368" as="geometry" />
        </mxCell>
        <mxCell id="RtJh5RVURmU-iK2Eab-f-314" style="edgeStyle=orthogonalEdgeStyle;rounded=0;orthogonalLoop=1;jettySize=auto;html=1;exitX=0;exitY=0;exitDx=89.17811004334237;exitDy=0;exitPerimeter=0;endArrow=none;endFill=0;strokeWidth=2;" parent="RtJh5RVURmU-iK2Eab-f-343" edge="1">
          <mxGeometry relative="1" as="geometry">
            <mxPoint x="90.51561203598112" as="targetPoint" />
            <mxPoint x="90.17811004334271" y="10.534039096483411" as="sourcePoint" />
          </mxGeometry>
        </mxCell>
        <mxCell id="RtJh5RVURmU-iK2Eab-f-319" value="&lt;span style=&quot;font-family: ISOCPEUR;&quot;&gt;«&lt;/span&gt;Работа&lt;span style=&quot;font-family: ISOCPEUR;&quot;&gt;»&lt;/span&gt;" style="shape=display;whiteSpace=wrap;html=1;fontSize=22;fontFamily=isocpeur;" parent="RtJh5RVURmU-iK2Eab-f-343" vertex="1">
          <mxGeometry y="10.534039096483411" width="168.05094221367986" height="63.41491536083015" as="geometry" />
        </mxCell>
        <mxCell id="RtJh5RVURmU-iK2Eab-f-345" style="edgeStyle=orthogonalEdgeStyle;rounded=0;orthogonalLoop=1;jettySize=auto;html=1;endArrow=none;endFill=0;strokeWidth=2;" parent="1" edge="1">
          <mxGeometry relative="1" as="geometry">
            <mxPoint x="483.53180503906765" y="1506" as="targetPoint" />
            <mxPoint x="483.55555555555543" y="1536.0009001338792" as="sourcePoint" />
          </mxGeometry>
        </mxCell>
        <mxCell id="RtJh5RVURmU-iK2Eab-f-187" value="&lt;div style=&quot;&quot;&gt;&lt;span style=&quot;background-color: initial;&quot;&gt;Предложение&lt;/span&gt;&lt;/div&gt;" style="shape=display;whiteSpace=wrap;html=1;fontSize=22;fontFamily=isocpeur;align=center;" parent="1" vertex="1">
          <mxGeometry x="391.79986963606734" y="1445.996460782025" width="168.05094221367986" height="63.41491536083015" as="geometry" />
        </mxCell>
        <mxCell id="RtJh5RVURmU-iK2Eab-f-346" value="" style="endArrow=none;html=1;rounded=0;strokeWidth=2;fontFamily=isocpeur;" parent="1" edge="1">
          <mxGeometry width="50" height="50" relative="1" as="geometry">
            <mxPoint x="382.02" y="1535.9966623352489" as="sourcePoint" />
            <mxPoint x="582.02" y="1535.9966623352489" as="targetPoint" />
          </mxGeometry>
        </mxCell>
        <mxCell id="RtJh5RVURmU-iK2Eab-f-310" style="edgeStyle=orthogonalEdgeStyle;rounded=0;orthogonalLoop=1;jettySize=auto;html=1;exitX=0;exitY=0;exitDx=89.17811004334237;exitDy=63.41491536083015;exitPerimeter=0;endArrow=none;endFill=0;strokeWidth=2;" parent="1" source="RtJh5RVURmU-iK2Eab-f-311" edge="1">
          <mxGeometry relative="1" as="geometry">
            <mxPoint x="493.13883393222704" y="1721.2209001338795" as="sourcePoint" />
            <mxPoint x="487.70333333333383" y="1731.650399159564" as="targetPoint" />
          </mxGeometry>
        </mxCell>
        <mxCell id="RtJh5RVURmU-iK2Eab-f-349" style="edgeStyle=orthogonalEdgeStyle;rounded=0;orthogonalLoop=1;jettySize=auto;html=1;exitX=0;exitY=0;exitDx=89.17811004334237;exitDy=0;exitPerimeter=0;endArrow=none;endFill=0;strokeWidth=2;entryX=0;entryY=0;entryDx=89.17811004334237;entryDy=63.41491536083014;entryPerimeter=0;" parent="1" source="RtJh5RVURmU-iK2Eab-f-311" target="RtJh5RVURmU-iK2Eab-f-205" edge="1">
          <mxGeometry relative="1" as="geometry">
            <mxPoint x="380" y="1630" as="targetPoint" />
          </mxGeometry>
        </mxCell>
        <mxCell id="RtJh5RVURmU-iK2Eab-f-311" value="&lt;div style=&quot;&quot;&gt;&lt;span style=&quot;background-color: initial;&quot;&gt;Новый фон&lt;/span&gt;&lt;/div&gt;" style="shape=display;whiteSpace=wrap;html=1;fontSize=22;fontFamily=isocpeur;align=center;" parent="1" vertex="1">
          <mxGeometry x="398.5063339322278" y="1655.0009001338792" width="168.05094221367986" height="63.41491536083015" as="geometry" />
        </mxCell>
        <mxCell id="RtJh5RVURmU-iK2Eab-f-312" style="edgeStyle=orthogonalEdgeStyle;rounded=0;orthogonalLoop=1;jettySize=auto;html=1;exitX=1;exitY=0.5;exitDx=0;exitDy=0;exitPerimeter=0;endArrow=none;endFill=0;strokeWidth=2;" parent="1" source="RtJh5RVURmU-iK2Eab-f-313" edge="1">
          <mxGeometry relative="1" as="geometry">
            <mxPoint x="487.35758534241404" y="1811.1345123421204" as="targetPoint" />
          </mxGeometry>
        </mxCell>
        <mxCell id="RtJh5RVURmU-iK2Eab-f-313" value="&lt;div style=&quot;font-size: 22px;&quot;&gt;Yellow4.txt&lt;/div&gt;" style="shape=cylinder3;whiteSpace=wrap;html=1;boundedLbl=1;backgroundOutline=1;size=15;rotation=0;textDirection=ltr;direction=south;fontSize=22;fontFamily=isocpeur;" parent="1" vertex="1">
          <mxGeometry x="410.0106986169726" y="1731.650399159564" width="157.5465775289349" height="67.21674583474281" as="geometry" />
        </mxCell>
        <mxCell id="RtJh5RVURmU-iK2Eab-f-315" style="edgeStyle=orthogonalEdgeStyle;rounded=0;orthogonalLoop=1;jettySize=auto;html=1;exitX=0.5;exitY=0;exitDx=0;exitDy=0;endArrow=none;endFill=0;strokeWidth=2;" parent="1" source="RtJh5RVURmU-iK2Eab-f-322" edge="1">
          <mxGeometry relative="1" as="geometry">
            <mxPoint x="322.67584882797837" y="1811.1345123421204" as="targetPoint" />
            <mxPoint x="322.4283122745719" y="1822.626191356466" as="sourcePoint" />
          </mxGeometry>
        </mxCell>
        <mxCell id="RtJh5RVURmU-iK2Eab-f-316" value="&lt;span style=&quot;font-family: ISOCPEUR;&quot;&gt;«&lt;/span&gt;Семья&lt;span style=&quot;font-family: ISOCPEUR;&quot;&gt;»&lt;/span&gt;" style="shape=display;whiteSpace=wrap;html=1;fontSize=22;fontFamily=isocpeur;" parent="1" vertex="1">
          <mxGeometry x="232.00020223122917" y="1822.6261913564663" width="168.05094221367986" height="63.41491536083015" as="geometry" />
        </mxCell>
        <mxCell id="RtJh5RVURmU-iK2Eab-f-321" value="&lt;div style=&quot;&quot;&gt;&lt;span style=&quot;background-color: initial;&quot;&gt;Счастливая концовка&lt;/span&gt;&lt;/div&gt;" style="shape=display;whiteSpace=wrap;html=1;fontSize=22;fontFamily=isocpeur;align=center;" parent="1" vertex="1">
          <mxGeometry x="232.00020223122914" y="1894.9963409579261" width="168.05094221367986" height="63.41491536083015" as="geometry" />
        </mxCell>
        <mxCell id="NguQTIr1SdlHwa-LjI-z-40" style="edgeStyle=orthogonalEdgeStyle;rounded=0;orthogonalLoop=1;jettySize=auto;html=1;exitX=0.5;exitY=1;exitDx=0;exitDy=0;strokeWidth=2;endArrow=none;endFill=0;" parent="1" source="RtJh5RVURmU-iK2Eab-f-322" edge="1">
          <mxGeometry relative="1" as="geometry">
            <mxPoint x="1590" y="2080" as="targetPoint" />
            <Array as="points">
              <mxPoint x="324" y="2055" />
              <mxPoint x="1580" y="2055" />
              <mxPoint x="1580" y="2080" />
            </Array>
          </mxGeometry>
        </mxCell>
        <mxCell id="RtJh5RVURmU-iK2Eab-f-322" value="&lt;font style=&quot;font-size: 22px;&quot; face=&quot;isocpeur&quot;&gt;Вывод названия концовки&lt;/font&gt;" style="rounded=0;whiteSpace=wrap;html=1;" parent="1" vertex="1">
          <mxGeometry x="248.98720010028" y="1973.3887446341196" width="150.08394434462872" height="57.458395071727715" as="geometry" />
        </mxCell>
        <mxCell id="RtJh5RVURmU-iK2Eab-f-317" value="" style="endArrow=none;html=1;rounded=0;strokeWidth=2;fontFamily=isocpeur;" parent="1" edge="1">
          <mxGeometry width="50" height="50" relative="1" as="geometry">
            <mxPoint x="640.3380717001633" y="1811.003318742622" as="sourcePoint" />
            <mxPoint x="321.99536497722835" y="1811.003318742622" as="targetPoint" />
          </mxGeometry>
        </mxCell>
        <mxCell id="G5mgxXajQfwZSKG5oSLH-1" value="" style="group" parent="1" vertex="1" connectable="0">
          <mxGeometry x="2434.4574428613214" y="438.44101514595695" width="607.0754109388708" height="622.5301370235029" as="geometry" />
        </mxCell>
        <mxCell id="RtJh5RVURmU-iK2Eab-f-182" style="edgeStyle=orthogonalEdgeStyle;rounded=0;orthogonalLoop=1;jettySize=auto;html=1;exitX=0;exitY=0;exitDx=94.6325;exitDy=66.22;exitPerimeter=0;endArrow=none;endFill=0;strokeWidth=2;" parent="G5mgxXajQfwZSKG5oSLH-1" target="RtJh5RVURmU-iK2Eab-f-159" edge="1">
          <mxGeometry relative="1" as="geometry">
            <mxPoint x="258.66056209000135" y="63.22000000000014" as="sourcePoint" />
            <mxPoint x="253.2740956002176" y="73.64949902568458" as="targetPoint" />
          </mxGeometry>
        </mxCell>
        <mxCell id="G5mgxXajQfwZSKG5oSLH-17" style="edgeStyle=orthogonalEdgeStyle;rounded=0;orthogonalLoop=1;jettySize=auto;html=1;exitX=0;exitY=0;exitDx=89.17811004334237;exitDy=0;exitPerimeter=0;strokeWidth=2;endArrow=none;endFill=0;" parent="G5mgxXajQfwZSKG5oSLH-1" source="RtJh5RVURmU-iK2Eab-f-158" edge="1">
          <mxGeometry relative="1" as="geometry">
            <mxPoint x="-34.4574428613214" y="-28.441015145956953" as="targetPoint" />
            <Array as="points">
              <mxPoint x="254" y="-28" />
            </Array>
          </mxGeometry>
        </mxCell>
        <mxCell id="RtJh5RVURmU-iK2Eab-f-158" value="&lt;div style=&quot;&quot;&gt;&lt;span style=&quot;background-color: initial;&quot;&gt;Новый фон&lt;/span&gt;&lt;/div&gt;" style="shape=display;whiteSpace=wrap;html=1;fontSize=22;fontFamily=isocpeur;align=center;" parent="G5mgxXajQfwZSKG5oSLH-1" vertex="1">
          <mxGeometry x="165.02806209000164" width="168.05094221367986" height="63.41491536083015" as="geometry" />
        </mxCell>
        <mxCell id="RtJh5RVURmU-iK2Eab-f-186" style="edgeStyle=orthogonalEdgeStyle;rounded=0;orthogonalLoop=1;jettySize=auto;html=1;exitX=0;exitY=0;exitDx=94.6325;exitDy=0;exitPerimeter=0;endArrow=none;endFill=0;strokeWidth=2;" parent="G5mgxXajQfwZSKG5oSLH-1" edge="1">
          <mxGeometry relative="1" as="geometry">
            <mxPoint x="90.51561203598158" y="156.0912521261036" as="targetPoint" />
            <mxPoint x="95.63250000000016" y="166.625291222587" as="sourcePoint" />
          </mxGeometry>
        </mxCell>
        <mxCell id="G5mgxXajQfwZSKG5oSLH-13" style="edgeStyle=orthogonalEdgeStyle;rounded=0;orthogonalLoop=1;jettySize=auto;html=1;exitX=0;exitY=0;exitDx=89.17811004334237;exitDy=63.41491536083014;exitPerimeter=0;strokeWidth=2;endArrow=openThin;endFill=0;endSize=9;" parent="G5mgxXajQfwZSKG5oSLH-1" source="RtJh5RVURmU-iK2Eab-f-161" edge="1">
          <mxGeometry relative="1" as="geometry">
            <mxPoint x="-544.4574428613214" y="601.558984854043" as="targetPoint" />
            <Array as="points">
              <mxPoint x="89" y="602" />
            </Array>
          </mxGeometry>
        </mxCell>
        <mxCell id="RtJh5RVURmU-iK2Eab-f-161" value="&lt;span style=&quot;font-family: ISOCPEUR;&quot;&gt;«&lt;/span&gt;Не хочу&lt;span style=&quot;font-family: ISOCPEUR;&quot;&gt;»&lt;/span&gt;" style="shape=display;whiteSpace=wrap;html=1;fontSize=22;fontFamily=isocpeur;" parent="G5mgxXajQfwZSKG5oSLH-1" vertex="1">
          <mxGeometry y="166.625291222587" width="168.05094221367986" height="63.41491536083015" as="geometry" />
        </mxCell>
        <mxCell id="RtJh5RVURmU-iK2Eab-f-183" value="" style="endArrow=none;html=1;rounded=0;strokeWidth=2;fontFamily=isocpeur;" parent="G5mgxXajQfwZSKG5oSLH-1" edge="1">
          <mxGeometry width="50" height="50" relative="1" as="geometry">
            <mxPoint x="407.7997998579367" y="157.09241860874312" as="sourcePoint" />
            <mxPoint x="89.4570931350022" y="157.09241860874312" as="targetPoint" />
          </mxGeometry>
        </mxCell>
        <mxCell id="RtJh5RVURmU-iK2Eab-f-184" style="edgeStyle=orthogonalEdgeStyle;rounded=0;orthogonalLoop=1;jettySize=auto;html=1;exitX=1;exitY=0.5;exitDx=0;exitDy=0;exitPerimeter=0;endArrow=none;endFill=0;strokeWidth=2;" parent="G5mgxXajQfwZSKG5oSLH-1" edge="1">
          <mxGeometry relative="1" as="geometry">
            <mxPoint x="254.02255713867862" y="156.99898485404304" as="targetPoint" />
            <mxPoint x="254.3057155392139" y="136.86624486042746" as="sourcePoint" />
          </mxGeometry>
        </mxCell>
        <mxCell id="RtJh5RVURmU-iK2Eab-f-185" style="edgeStyle=orthogonalEdgeStyle;rounded=0;orthogonalLoop=1;jettySize=auto;html=1;endArrow=none;endFill=0;strokeWidth=2;" parent="G5mgxXajQfwZSKG5oSLH-1" edge="1">
          <mxGeometry relative="1" as="geometry">
            <mxPoint x="407.19757698575177" y="155.00361220824135" as="targetPoint" />
            <mxPoint x="406.8125571386786" y="409.63898485404326" as="sourcePoint" />
          </mxGeometry>
        </mxCell>
        <mxCell id="RtJh5RVURmU-iK2Eab-f-160" value="&lt;span style=&quot;font-family: ISOCPEUR;&quot;&gt;«&lt;/span&gt;Хорошо&lt;span style=&quot;font-family: ISOCPEUR;&quot;&gt;»&lt;/span&gt;" style="shape=display;whiteSpace=wrap;html=1;fontSize=22;fontFamily=isocpeur;" parent="G5mgxXajQfwZSKG5oSLH-1" vertex="1">
          <mxGeometry x="317.7719303890026" y="166.4952912225869" width="168.05094221367986" height="63.41491536083015" as="geometry" />
        </mxCell>
        <mxCell id="RtJh5RVURmU-iK2Eab-f-162" value="&lt;div style=&quot;&quot;&gt;&lt;span style=&quot;background-color: initial;&quot;&gt;Новый фон&lt;/span&gt;&lt;/div&gt;" style="shape=display;whiteSpace=wrap;html=1;fontSize=22;fontFamily=isocpeur;align=center;" parent="G5mgxXajQfwZSKG5oSLH-1" vertex="1">
          <mxGeometry x="317.7719303890026" y="244.705743314387" width="168.05094221367986" height="63.41491536083015" as="geometry" />
        </mxCell>
        <mxCell id="RtJh5RVURmU-iK2Eab-f-164" value="&lt;div style=&quot;font-size: 22px;&quot;&gt;Bad2.txt&lt;/div&gt;" style="shape=cylinder3;whiteSpace=wrap;html=1;boundedLbl=1;backgroundOutline=1;size=15;rotation=0;textDirection=ltr;direction=south;fontSize=22;fontFamily=isocpeur;" parent="G5mgxXajQfwZSKG5oSLH-1" vertex="1">
          <mxGeometry x="328.2762950737474" y="324.19943289612223" width="157.5465775289349" height="67.21674583474281" as="geometry" />
        </mxCell>
        <mxCell id="RtJh5RVURmU-iK2Eab-f-172" style="edgeStyle=orthogonalEdgeStyle;rounded=0;orthogonalLoop=1;jettySize=auto;html=1;endArrow=none;endFill=0;strokeWidth=2;" parent="G5mgxXajQfwZSKG5oSLH-1" source="RtJh5RVURmU-iK2Eab-f-177" edge="1">
          <mxGeometry relative="1" as="geometry">
            <mxPoint x="526.03489067695" y="409.40702550371367" as="targetPoint" />
            <Array as="points" />
          </mxGeometry>
        </mxCell>
        <mxCell id="RtJh5RVURmU-iK2Eab-f-166" value="&lt;span style=&quot;font-family: ISOCPEUR;&quot;&gt;«&lt;/span&gt;Сдаться&lt;span style=&quot;font-family: ISOCPEUR;&quot;&gt;»&lt;/span&gt;" style="shape=display;whiteSpace=wrap;html=1;fontSize=22;fontFamily=isocpeur;" parent="G5mgxXajQfwZSKG5oSLH-1" vertex="1">
          <mxGeometry x="436.0244687251911" y="418.98342468233506" width="168.05094221367986" height="63.41491536083015" as="geometry" />
        </mxCell>
        <mxCell id="RtJh5RVURmU-iK2Eab-f-174" style="edgeStyle=orthogonalEdgeStyle;rounded=0;orthogonalLoop=1;jettySize=auto;html=1;endArrow=none;endFill=0;strokeWidth=2;" parent="G5mgxXajQfwZSKG5oSLH-1" edge="1">
          <mxGeometry relative="1" as="geometry">
            <mxPoint x="284.54486315965414" y="410.3870255037137" as="targetPoint" />
            <mxPoint x="284.59209501525083" y="419.9634246823351" as="sourcePoint" />
          </mxGeometry>
        </mxCell>
        <mxCell id="G5mgxXajQfwZSKG5oSLH-19" style="edgeStyle=orthogonalEdgeStyle;rounded=0;orthogonalLoop=1;jettySize=auto;html=1;exitX=0;exitY=0;exitDx=89.17811004334237;exitDy=63.41491536083015;exitPerimeter=0;strokeWidth=2;endArrow=openThin;endFill=0;endSize=9;" parent="G5mgxXajQfwZSKG5oSLH-1" edge="1">
          <mxGeometry relative="1" as="geometry">
            <mxPoint x="349.5425571386786" y="1063.558984854043" as="targetPoint" />
            <mxPoint x="293.6975020961563" y="475.37834004316505" as="sourcePoint" />
            <Array as="points">
              <mxPoint x="294" y="769" />
              <mxPoint x="450" y="769" />
              <mxPoint x="450" y="1064" />
            </Array>
          </mxGeometry>
        </mxCell>
        <mxCell id="RtJh5RVURmU-iK2Eab-f-167" value="&lt;span style=&quot;font-family: ISOCPEUR;&quot;&gt;«&lt;/span&gt;Пытаться&lt;span style=&quot;font-family: ISOCPEUR;&quot;&gt;»&lt;/span&gt;" style="shape=display;whiteSpace=wrap;html=1;fontSize=22;fontFamily=isocpeur;" parent="G5mgxXajQfwZSKG5oSLH-1" vertex="1">
          <mxGeometry x="200.51939205281406" y="419.9634246823351" width="168.05094221367986" height="63.41491536083015" as="geometry" />
        </mxCell>
        <mxCell id="RtJh5RVURmU-iK2Eab-f-170" value="" style="endArrow=none;html=1;rounded=0;strokeWidth=2;fontFamily=isocpeur;" parent="G5mgxXajQfwZSKG5oSLH-1" edge="1">
          <mxGeometry width="50" height="50" relative="1" as="geometry">
            <mxPoint x="282.8203572473153" y="409.7561496405643" as="sourcePoint" />
            <mxPoint x="526.5367321271883" y="409.7561496405643" as="targetPoint" />
          </mxGeometry>
        </mxCell>
        <mxCell id="RtJh5RVURmU-iK2Eab-f-175" value="&lt;div style=&quot;&quot;&gt;&lt;span style=&quot;background-color: initial;&quot;&gt;Плохая концовка&lt;/span&gt;&lt;/div&gt;" style="shape=display;whiteSpace=wrap;html=1;fontSize=22;fontFamily=isocpeur;align=center;" parent="G5mgxXajQfwZSKG5oSLH-1" vertex="1">
          <mxGeometry x="439.0244687251911" y="493.6793382755812" width="168.05094221367986" height="63.41491536083015" as="geometry" />
        </mxCell>
        <mxCell id="G5mgxXajQfwZSKG5oSLH-15" style="edgeStyle=orthogonalEdgeStyle;rounded=0;orthogonalLoop=1;jettySize=auto;html=1;exitX=0.5;exitY=1;exitDx=0;exitDy=0;strokeWidth=2;endArrow=openThin;endFill=0;endSize=10;" parent="G5mgxXajQfwZSKG5oSLH-1" edge="1">
          <mxGeometry relative="1" as="geometry">
            <mxPoint x="-854.4574428613214" y="1615.558984854043" as="targetPoint" />
            <mxPoint x="526.0334387665562" y="626.5301370235029" as="sourcePoint" />
            <Array as="points">
              <mxPoint x="526" y="1616" />
              <mxPoint x="-844" y="1616" />
            </Array>
          </mxGeometry>
        </mxCell>
        <mxCell id="RtJh5RVURmU-iK2Eab-f-177" value="&lt;font style=&quot;font-size: 22px;&quot; face=&quot;isocpeur&quot;&gt;Вывод названия концовки&lt;/font&gt;" style="rounded=0;whiteSpace=wrap;html=1;" parent="G5mgxXajQfwZSKG5oSLH-1" vertex="1">
          <mxGeometry x="450.99146659424196" y="565.071741951775" width="150.08394434462872" height="57.458395071727715" as="geometry" />
        </mxCell>
        <mxCell id="RtJh5RVURmU-iK2Eab-f-159" value="&lt;div style=&quot;font-size: 22px;&quot;&gt;Bad1.txt&lt;/div&gt;" style="shape=cylinder3;whiteSpace=wrap;html=1;boundedLbl=1;backgroundOutline=1;size=15;rotation=0;textDirection=ltr;direction=south;fontSize=22;fontFamily=isocpeur;" parent="G5mgxXajQfwZSKG5oSLH-1" vertex="1">
          <mxGeometry x="175.532426774746" y="76.64949902568458" width="157.5465775289349" height="67.21674583474281" as="geometry" />
        </mxCell>
        <mxCell id="G5mgxXajQfwZSKG5oSLH-25" value="" style="endArrow=none;html=1;rounded=0;strokeWidth=2;fontFamily=isocpeur;" parent="G5mgxXajQfwZSKG5oSLH-1" edge="1">
          <mxGeometry width="50" height="50" relative="1" as="geometry">
            <mxPoint x="178" y="239.0361496405642" as="sourcePoint" />
            <mxPoint x="407" y="239.0361496405642" as="targetPoint" />
          </mxGeometry>
        </mxCell>
        <mxCell id="NguQTIr1SdlHwa-LjI-z-18" value="" style="endArrow=openThin;html=1;rounded=0;endFill=0;endSize=10;strokeWidth=2;" parent="G5mgxXajQfwZSKG5oSLH-1" edge="1">
          <mxGeometry width="50" height="50" relative="1" as="geometry">
            <mxPoint x="118.5425571386786" y="157.55898485404305" as="sourcePoint" />
            <mxPoint x="88.5425571386786" y="157.77898485404307" as="targetPoint" />
          </mxGeometry>
        </mxCell>
        <mxCell id="NguQTIr1SdlHwa-LjI-z-37" value="" style="endArrow=openThin;html=1;rounded=0;endFill=0;endSize=10;strokeWidth=2;" parent="G5mgxXajQfwZSKG5oSLH-1" edge="1">
          <mxGeometry width="50" height="50" relative="1" as="geometry">
            <mxPoint x="313.5425571386786" y="409.89898485404296" as="sourcePoint" />
            <mxPoint x="283.5425571386786" y="410.118984854043" as="targetPoint" />
          </mxGeometry>
        </mxCell>
        <mxCell id="G5mgxXajQfwZSKG5oSLH-4" value="" style="group" parent="1" vertex="1" connectable="0">
          <mxGeometry x="1572.6873680691929" y="802.0033752280946" width="318.3427067229345" height="157.09241860874317" as="geometry" />
        </mxCell>
        <mxCell id="RtJh5RVURmU-iK2Eab-f-214" style="edgeStyle=orthogonalEdgeStyle;rounded=0;orthogonalLoop=1;jettySize=auto;html=1;endArrow=none;endFill=0;strokeWidth=2;" parent="G5mgxXajQfwZSKG5oSLH-4" edge="1">
          <mxGeometry relative="1" as="geometry">
            <mxPoint x="160.6648058438509" y="63.41491536083038" as="sourcePoint" />
            <mxPoint x="165.88219714819888" y="76.6494990256848" as="targetPoint" />
          </mxGeometry>
        </mxCell>
        <mxCell id="G5mgxXajQfwZSKG5oSLH-8" style="edgeStyle=orthogonalEdgeStyle;rounded=0;orthogonalLoop=1;jettySize=auto;html=1;exitX=0;exitY=0;exitDx=89.17811004334237;exitDy=0;exitPerimeter=0;strokeWidth=2;endArrow=none;endFill=0;" parent="G5mgxXajQfwZSKG5oSLH-4" edge="1">
          <mxGeometry relative="1" as="geometry">
            <mxPoint x="-132.68736806919287" y="-4.003375228094569" as="targetPoint" />
            <mxPoint x="164.74907899834125" y="8.000000000000114" as="sourcePoint" />
            <Array as="points">
              <mxPoint x="165" y="-12" />
              <mxPoint x="-133" y="-12" />
            </Array>
          </mxGeometry>
        </mxCell>
        <mxCell id="RtJh5RVURmU-iK2Eab-f-215" value="&lt;div style=&quot;&quot;&gt;&lt;span style=&quot;background-color: initial;&quot;&gt;Новый фон&lt;/span&gt;&lt;/div&gt;" style="shape=display;whiteSpace=wrap;html=1;fontSize=22;fontFamily=isocpeur;align=center;" parent="G5mgxXajQfwZSKG5oSLH-4" vertex="1">
          <mxGeometry x="75.57096895499899" width="168.05094221367986" height="63.41491536083015" as="geometry" />
        </mxCell>
        <mxCell id="RtJh5RVURmU-iK2Eab-f-216" style="edgeStyle=orthogonalEdgeStyle;rounded=0;orthogonalLoop=1;jettySize=auto;html=1;exitX=1;exitY=0.5;exitDx=0;exitDy=0;exitPerimeter=0;endArrow=none;endFill=0;strokeWidth=2;" parent="G5mgxXajQfwZSKG5oSLH-4" source="RtJh5RVURmU-iK2Eab-f-217" edge="1">
          <mxGeometry relative="1" as="geometry">
            <mxPoint x="163.42222036518615" y="156.13361220824152" as="targetPoint" />
          </mxGeometry>
        </mxCell>
        <mxCell id="RtJh5RVURmU-iK2Eab-f-217" value="&lt;div style=&quot;font-size: 22px;&quot;&gt;GR.txt&lt;/div&gt;" style="shape=cylinder3;whiteSpace=wrap;html=1;boundedLbl=1;backgroundOutline=1;size=15;rotation=0;textDirection=ltr;direction=south;fontSize=22;fontFamily=isocpeur;" parent="G5mgxXajQfwZSKG5oSLH-4" vertex="1">
          <mxGeometry x="86.07533363974426" y="76.6494990256848" width="157.5465775289349" height="67.21674583474281" as="geometry" />
        </mxCell>
        <mxCell id="RtJh5RVURmU-iK2Eab-f-223" value="" style="endArrow=none;html=1;rounded=0;strokeWidth=2;fontFamily=isocpeur;" parent="G5mgxXajQfwZSKG5oSLH-4" edge="1">
          <mxGeometry width="50" height="50" relative="1" as="geometry">
            <mxPoint x="318.3427067229345" y="157.09241860874317" as="sourcePoint" />
            <mxPoint y="157.09241860874317" as="targetPoint" />
          </mxGeometry>
        </mxCell>
        <mxCell id="G5mgxXajQfwZSKG5oSLH-5" value="" style="group" parent="1" vertex="1" connectable="0">
          <mxGeometry x="1481.0002749341907" y="957.9946273541982" width="170.88485354949262" height="216.9849874458647" as="geometry" />
        </mxCell>
        <mxCell id="RtJh5RVURmU-iK2Eab-f-218" style="edgeStyle=orthogonalEdgeStyle;rounded=0;orthogonalLoop=1;jettySize=auto;html=1;exitX=0.5;exitY=0;exitDx=0;exitDy=0;endArrow=none;endFill=0;strokeWidth=2;" parent="G5mgxXajQfwZSKG5oSLH-5" source="RtJh5RVURmU-iK2Eab-f-227" edge="1">
          <mxGeometry relative="1" as="geometry">
            <mxPoint x="90.51561203598112" as="targetPoint" />
            <mxPoint x="95.63250000000016" y="10.534039096483298" as="sourcePoint" />
          </mxGeometry>
        </mxCell>
        <mxCell id="RtJh5RVURmU-iK2Eab-f-219" value="&lt;span style=&quot;font-family: ISOCPEUR;&quot;&gt;&lt;font style=&quot;font-size: 22px;&quot;&gt;«&lt;/font&gt;&lt;/span&gt;Учиться&lt;span style=&quot;font-family: ISOCPEUR;&quot;&gt;»&lt;/span&gt;" style="shape=display;whiteSpace=wrap;html=1;fontSize=22;fontFamily=isocpeur;" parent="G5mgxXajQfwZSKG5oSLH-5" vertex="1">
          <mxGeometry y="10.534039096483298" width="168.05094221367986" height="63.41491536083015" as="geometry" />
        </mxCell>
        <mxCell id="RtJh5RVURmU-iK2Eab-f-225" value="&lt;div style=&quot;&quot;&gt;&lt;span style=&quot;background-color: initial;&quot;&gt;Программист&lt;/span&gt;&lt;/div&gt;" style="shape=display;whiteSpace=wrap;html=1;fontSize=22;fontFamily=isocpeur;align=center;" parent="G5mgxXajQfwZSKG5oSLH-5" vertex="1">
          <mxGeometry x="2.8339113358129" y="85.13418869794293" width="168.05094221367986" height="63.41491536083015" as="geometry" />
        </mxCell>
        <mxCell id="G5mgxXajQfwZSKG5oSLH-14" style="edgeStyle=orthogonalEdgeStyle;rounded=0;orthogonalLoop=1;jettySize=auto;html=1;exitX=0.5;exitY=1;exitDx=0;exitDy=0;strokeWidth=2;endArrow=none;endFill=0;" parent="G5mgxXajQfwZSKG5oSLH-5" source="RtJh5RVURmU-iK2Eab-f-227" edge="1">
          <mxGeometry relative="1" as="geometry">
            <mxPoint x="91.99972506580934" y="1098" as="targetPoint" />
            <Array as="points">
              <mxPoint x="92" y="1082" />
            </Array>
          </mxGeometry>
        </mxCell>
        <mxCell id="RtJh5RVURmU-iK2Eab-f-227" value="&lt;font style=&quot;font-size: 22px;&quot; face=&quot;isocpeur&quot;&gt;Вывод названия концовки&lt;/font&gt;" style="rounded=0;whiteSpace=wrap;html=1;" parent="G5mgxXajQfwZSKG5oSLH-5" vertex="1">
          <mxGeometry x="16.800909204863274" y="159.52659237413707" width="150.08394434462872" height="57.458395071727715" as="geometry" />
        </mxCell>
        <mxCell id="NguQTIr1SdlHwa-LjI-z-10" value="" style="endArrow=openThin;html=1;rounded=0;endFill=0;endSize=10;strokeWidth=2;" parent="G5mgxXajQfwZSKG5oSLH-5" edge="1">
          <mxGeometry width="50" height="50" relative="1" as="geometry">
            <mxPoint x="117.99972506580934" y="0.9953726458018082" as="sourcePoint" />
            <mxPoint x="87.99972506580934" y="1.2153726458018355" as="targetPoint" />
          </mxGeometry>
        </mxCell>
        <mxCell id="RtJh5RVURmU-iK2Eab-f-220" style="edgeStyle=orthogonalEdgeStyle;rounded=0;orthogonalLoop=1;jettySize=auto;html=1;endArrow=none;endFill=0;strokeWidth=2;" parent="1" edge="1">
          <mxGeometry relative="1" as="geometry">
            <mxPoint x="1890.4278519199424" y="957.9969874363361" as="targetPoint" />
            <mxPoint x="1871.333333333333" y="1051.8609001338796" as="sourcePoint" />
          </mxGeometry>
        </mxCell>
        <mxCell id="RtJh5RVURmU-iK2Eab-f-221" value="&lt;span style=&quot;font-family: ISOCPEUR;&quot;&gt;«&lt;/span&gt;Забить&lt;span style=&quot;font-family: ISOCPEUR;&quot;&gt;»&lt;/span&gt;" style="shape=display;whiteSpace=wrap;html=1;fontSize=22;fontFamily=isocpeur;size=0.23800994002133474;" parent="1" vertex="1">
          <mxGeometry x="1800.0022053231933" y="969.4886664506815" width="168.05094221367986" height="63.41491536083015" as="geometry" />
        </mxCell>
        <mxCell id="RtJh5RVURmU-iK2Eab-f-228" style="edgeStyle=orthogonalEdgeStyle;rounded=0;orthogonalLoop=1;jettySize=auto;html=1;exitX=0;exitY=0;exitDx=89.17811004334237;exitDy=63.41491536083015;exitPerimeter=0;endArrow=none;endFill=0;strokeWidth=2;" parent="1" source="RtJh5RVURmU-iK2Eab-f-229" edge="1">
          <mxGeometry relative="1" as="geometry">
            <mxPoint x="1895.888833932227" y="1114.0809001338794" as="sourcePoint" />
            <mxPoint x="1890.4533333333338" y="1124.5103991595638" as="targetPoint" />
          </mxGeometry>
        </mxCell>
        <mxCell id="RtJh5RVURmU-iK2Eab-f-229" value="&lt;div style=&quot;&quot;&gt;&lt;span style=&quot;background-color: initial;&quot;&gt;Новый фон&lt;/span&gt;&lt;/div&gt;" style="shape=display;whiteSpace=wrap;html=1;fontSize=22;fontFamily=isocpeur;align=center;" parent="1" vertex="1">
          <mxGeometry x="1801.2563339322278" y="1047.8609001338796" width="168.05094221367986" height="63.41491536083015" as="geometry" />
        </mxCell>
        <mxCell id="RtJh5RVURmU-iK2Eab-f-230" style="edgeStyle=orthogonalEdgeStyle;rounded=0;orthogonalLoop=1;jettySize=auto;html=1;exitX=1;exitY=0.5;exitDx=0;exitDy=0;exitPerimeter=0;endArrow=none;endFill=0;strokeWidth=2;" parent="1" source="RtJh5RVURmU-iK2Eab-f-231" edge="1">
          <mxGeometry relative="1" as="geometry">
            <mxPoint x="1890.107585342414" y="1203.9945123421207" as="targetPoint" />
          </mxGeometry>
        </mxCell>
        <mxCell id="RtJh5RVURmU-iK2Eab-f-231" value="&lt;div style=&quot;font-size: 22px;&quot;&gt;Green.txt&lt;/div&gt;" style="shape=cylinder3;whiteSpace=wrap;html=1;boundedLbl=1;backgroundOutline=1;size=15;rotation=0;textDirection=ltr;direction=south;fontSize=22;fontFamily=isocpeur;" parent="1" vertex="1">
          <mxGeometry x="1812.7606986169726" y="1124.5103991595638" width="157.5465775289349" height="67.21674583474281" as="geometry" />
        </mxCell>
        <mxCell id="RtJh5RVURmU-iK2Eab-f-232" style="edgeStyle=orthogonalEdgeStyle;rounded=0;orthogonalLoop=1;jettySize=auto;html=1;exitX=0;exitY=0;exitDx=89.17811004334237;exitDy=0;exitPerimeter=0;endArrow=none;endFill=0;strokeWidth=2;" parent="1" edge="1">
          <mxGeometry relative="1" as="geometry">
            <mxPoint x="2043.9138838782078" y="1204.9521522599825" as="targetPoint" />
            <mxPoint x="2043.5763818855694" y="1215.4861913564664" as="sourcePoint" />
          </mxGeometry>
        </mxCell>
        <mxCell id="RtJh5RVURmU-iK2Eab-f-233" value="&lt;span style=&quot;font-family: ISOCPEUR;&quot;&gt;«&lt;/span&gt;Забить&lt;span style=&quot;font-family: ISOCPEUR;&quot;&gt;»&lt;/span&gt;" style="shape=display;whiteSpace=wrap;html=1;fontSize=22;fontFamily=isocpeur;" parent="1" vertex="1">
          <mxGeometry x="1953.3982718422267" y="1215.4861913564664" width="168.05094221367986" height="63.41491536083015" as="geometry" />
        </mxCell>
        <mxCell id="RtJh5RVURmU-iK2Eab-f-234" style="edgeStyle=orthogonalEdgeStyle;rounded=0;orthogonalLoop=1;jettySize=auto;html=1;exitX=0;exitY=0;exitDx=89.17811004334237;exitDy=0;exitPerimeter=0;endArrow=none;endFill=0;strokeWidth=2;" parent="1" source="RtJh5RVURmU-iK2Eab-f-235" edge="1">
          <mxGeometry relative="1" as="geometry">
            <mxPoint x="1725.4258488279784" y="1203.9945123421207" as="targetPoint" />
          </mxGeometry>
        </mxCell>
        <mxCell id="RtJh5RVURmU-iK2Eab-f-235" value="&lt;span style=&quot;font-family: ISOCPEUR;&quot;&gt;«&lt;/span&gt;Грубить&lt;span style=&quot;font-family: ISOCPEUR;&quot;&gt;»&lt;/span&gt;" style="shape=display;whiteSpace=wrap;html=1;fontSize=22;fontFamily=isocpeur;" parent="1" vertex="1">
          <mxGeometry x="1636.0002022312292" y="1215.4861913564664" width="168.05094221367986" height="63.41491536083015" as="geometry" />
        </mxCell>
        <mxCell id="RtJh5RVURmU-iK2Eab-f-237" value="" style="endArrow=none;html=1;rounded=0;strokeWidth=2;fontFamily=isocpeur;" parent="1" edge="1">
          <mxGeometry width="50" height="50" relative="1" as="geometry">
            <mxPoint x="2045.0280717001633" y="1204.9533187426223" as="sourcePoint" />
            <mxPoint x="1726.6853649772283" y="1204.9533187426223" as="targetPoint" />
          </mxGeometry>
        </mxCell>
        <mxCell id="RtJh5RVURmU-iK2Eab-f-238" style="edgeStyle=orthogonalEdgeStyle;rounded=0;orthogonalLoop=1;jettySize=auto;html=1;exitX=0;exitY=0;exitDx=94.6325;exitDy=66.22;exitPerimeter=0;entryX=0;entryY=0;entryDx=94.6325;entryDy=0;entryPerimeter=0;strokeWidth=2;endArrow=none;endFill=0;" parent="1" edge="1">
          <mxGeometry relative="1" as="geometry">
            <mxPoint x="2045.9727088121008" y="1278.901106717297" as="sourcePoint" />
            <mxPoint x="2045.9727088121008" y="1290.182104949712" as="targetPoint" />
          </mxGeometry>
        </mxCell>
        <mxCell id="RtJh5RVURmU-iK2Eab-f-240" style="edgeStyle=orthogonalEdgeStyle;rounded=0;orthogonalLoop=1;jettySize=auto;html=1;entryX=0.5;entryY=0;entryDx=0;entryDy=0;endArrow=none;endFill=0;strokeWidth=2;" parent="1" edge="1">
          <mxGeometry relative="1" as="geometry">
            <mxPoint x="1726.7200000000003" y="1353.5012563187565" as="sourcePoint" />
            <mxPoint x="1732.0091722725947" y="1368.4787446341202" as="targetPoint" />
            <Array as="points">
              <mxPoint x="1726.7200000000003" y="1373.0900000000001" />
              <mxPoint x="1731.7200000000003" y="1373.0900000000001" />
            </Array>
          </mxGeometry>
        </mxCell>
        <mxCell id="RtJh5RVURmU-iK2Eab-f-241" value="&lt;div style=&quot;&quot;&gt;&lt;span style=&quot;background-color: initial;&quot;&gt;Певица&lt;/span&gt;&lt;/div&gt;" style="shape=display;whiteSpace=wrap;html=1;fontSize=22;fontFamily=isocpeur;align=center;" parent="1" vertex="1">
          <mxGeometry x="1636.0002022312292" y="1290.086340957926" width="168.05094221367986" height="63.41491536083015" as="geometry" />
        </mxCell>
        <mxCell id="G5mgxXajQfwZSKG5oSLH-9" style="edgeStyle=orthogonalEdgeStyle;rounded=0;orthogonalLoop=1;jettySize=auto;html=1;exitX=0.5;exitY=1;exitDx=0;exitDy=0;strokeWidth=2;endArrow=none;endFill=0;" parent="1" source="RtJh5RVURmU-iK2Eab-f-243" edge="1">
          <mxGeometry relative="1" as="geometry">
            <mxPoint x="1729" y="2055" as="targetPoint" />
          </mxGeometry>
        </mxCell>
        <mxCell id="RtJh5RVURmU-iK2Eab-f-243" value="&lt;font style=&quot;font-size: 22px;&quot; face=&quot;isocpeur&quot;&gt;Вывод названия концовки&lt;/font&gt;" style="rounded=0;whiteSpace=wrap;html=1;" parent="1" vertex="1">
          <mxGeometry x="1653.96720010028" y="1368.4787446341202" width="150.08394434462872" height="57.458395071727715" as="geometry" />
        </mxCell>
        <mxCell id="RtJh5RVURmU-iK2Eab-f-246" style="edgeStyle=orthogonalEdgeStyle;rounded=0;orthogonalLoop=1;jettySize=auto;html=1;exitX=0;exitY=0;exitDx=89.17811004334237;exitDy=63.41491536083015;exitPerimeter=0;entryX=0;entryY=0;entryDx=89.17811004334237;entryDy=0;entryPerimeter=0;endArrow=none;endFill=0;strokeWidth=2;" parent="1" source="RtJh5RVURmU-iK2Eab-f-235" target="RtJh5RVURmU-iK2Eab-f-241" edge="1">
          <mxGeometry relative="1" as="geometry" />
        </mxCell>
        <mxCell id="RtJh5RVURmU-iK2Eab-f-256" style="edgeStyle=orthogonalEdgeStyle;rounded=0;orthogonalLoop=1;jettySize=auto;html=1;exitX=0;exitY=0;exitDx=89.17811004334237;exitDy=63.41491536083015;exitPerimeter=0;endArrow=none;endFill=0;strokeWidth=2;" parent="1" source="RtJh5RVURmU-iK2Eab-f-257" edge="1">
          <mxGeometry relative="1" as="geometry">
            <mxPoint x="2053.888833932227" y="1441.5009001338794" as="sourcePoint" />
            <mxPoint x="2048" y="1532.2800000000002" as="targetPoint" />
            <Array as="points">
              <mxPoint x="2048" y="1435.2800000000002" />
              <mxPoint x="2048" y="1435.2800000000002" />
            </Array>
          </mxGeometry>
        </mxCell>
        <mxCell id="RtJh5RVURmU-iK2Eab-f-257" value="&lt;div style=&quot;&quot;&gt;&lt;span style=&quot;background-color: initial;&quot;&gt;Новый фон&lt;/span&gt;&lt;/div&gt;" style="shape=display;whiteSpace=wrap;html=1;fontSize=22;fontFamily=isocpeur;align=center;" parent="1" vertex="1">
          <mxGeometry x="1959.0463339322278" y="1290.8209001338796" width="168.05094221367986" height="63.41491536083015" as="geometry" />
        </mxCell>
        <mxCell id="RtJh5RVURmU-iK2Eab-f-259" value="&lt;div style=&quot;font-size: 22px;&quot;&gt;Red1.txt&lt;/div&gt;" style="shape=cylinder3;whiteSpace=wrap;html=1;boundedLbl=1;backgroundOutline=1;size=15;rotation=0;textDirection=ltr;direction=south;fontSize=22;fontFamily=isocpeur;" parent="1" vertex="1">
          <mxGeometry x="1970.7606986169726" y="1365.9303991595639" width="157.5465775289349" height="67.21674583474281" as="geometry" />
        </mxCell>
        <mxCell id="RtJh5RVURmU-iK2Eab-f-260" style="edgeStyle=orthogonalEdgeStyle;rounded=0;orthogonalLoop=1;jettySize=auto;html=1;exitX=0;exitY=0;exitDx=89.17811004334237;exitDy=0;exitPerimeter=0;endArrow=none;endFill=0;strokeWidth=2;" parent="1" edge="1">
          <mxGeometry relative="1" as="geometry">
            <mxPoint x="2201.913883878208" y="1532.3721522599826" as="targetPoint" />
            <mxPoint x="2201.5763818855694" y="1542.9061913564665" as="sourcePoint" />
          </mxGeometry>
        </mxCell>
        <mxCell id="G5mgxXajQfwZSKG5oSLH-20" style="edgeStyle=orthogonalEdgeStyle;rounded=0;orthogonalLoop=1;jettySize=auto;html=1;exitX=0;exitY=0;exitDx=89.17811004334237;exitDy=63.41491536083015;exitPerimeter=0;strokeWidth=2;endArrow=openThin;endFill=0;endSize=9;" parent="1" source="RtJh5RVURmU-iK2Eab-f-261" edge="1">
          <mxGeometry relative="1" as="geometry">
            <mxPoint x="2304" y="1057" as="targetPoint" />
            <mxPoint x="2201.576381885569" y="1613.3211067172965" as="sourcePoint" />
            <Array as="points">
              <mxPoint x="2202" y="1606" />
              <mxPoint x="2202" y="1633" />
              <mxPoint x="2304" y="1633" />
            </Array>
          </mxGeometry>
        </mxCell>
        <mxCell id="RtJh5RVURmU-iK2Eab-f-261" value="&lt;span style=&quot;font-family: ISOCPEUR;&quot;&gt;«&lt;/span&gt;Согласиться&lt;span style=&quot;font-family: ISOCPEUR;&quot;&gt;»&lt;/span&gt;" style="shape=display;whiteSpace=wrap;html=1;fontSize=22;fontFamily=isocpeur;" parent="1" vertex="1">
          <mxGeometry x="2111.3982718422267" y="1542.9061913564665" width="168.05094221367986" height="63.41491536083015" as="geometry" />
        </mxCell>
        <mxCell id="RtJh5RVURmU-iK2Eab-f-262" style="edgeStyle=orthogonalEdgeStyle;rounded=0;orthogonalLoop=1;jettySize=auto;html=1;exitX=0;exitY=0;exitDx=89.17811004334237;exitDy=0;exitPerimeter=0;endArrow=none;endFill=0;strokeWidth=2;" parent="1" source="RtJh5RVURmU-iK2Eab-f-263" edge="1">
          <mxGeometry relative="1" as="geometry">
            <mxPoint x="1883.4258488279784" y="1531.4145123421208" as="targetPoint" />
          </mxGeometry>
        </mxCell>
        <mxCell id="RtJh5RVURmU-iK2Eab-f-263" value="&lt;span style=&quot;font-family: ISOCPEUR;&quot;&gt;«&lt;/span&gt;Отказаться&lt;span style=&quot;font-family: ISOCPEUR;&quot;&gt;»&lt;/span&gt;" style="shape=display;whiteSpace=wrap;html=1;fontSize=22;fontFamily=isocpeur;" parent="1" vertex="1">
          <mxGeometry x="1794.0002022312292" y="1542.9061913564665" width="168.05094221367986" height="63.41491536083015" as="geometry" />
        </mxCell>
        <mxCell id="RtJh5RVURmU-iK2Eab-f-264" value="" style="endArrow=none;html=1;rounded=0;strokeWidth=2;fontFamily=isocpeur;" parent="1" edge="1">
          <mxGeometry width="50" height="50" relative="1" as="geometry">
            <mxPoint x="2203.0280717001633" y="1532.3733187426224" as="sourcePoint" />
            <mxPoint x="1884.6853649772283" y="1532.3733187426224" as="targetPoint" />
          </mxGeometry>
        </mxCell>
        <mxCell id="RtJh5RVURmU-iK2Eab-f-266" style="edgeStyle=orthogonalEdgeStyle;rounded=0;orthogonalLoop=1;jettySize=auto;html=1;entryX=0.5;entryY=0;entryDx=0;entryDy=0;endArrow=none;endFill=0;strokeWidth=2;" parent="1" edge="1">
          <mxGeometry relative="1" as="geometry">
            <mxPoint x="1884.7200000000003" y="1680.9212563187566" as="sourcePoint" />
            <mxPoint x="1890.0091722725947" y="1695.8987446341202" as="targetPoint" />
            <Array as="points">
              <mxPoint x="1884.7200000000003" y="1700.5100000000002" />
              <mxPoint x="1889.7200000000003" y="1700.5100000000002" />
            </Array>
          </mxGeometry>
        </mxCell>
        <mxCell id="RtJh5RVURmU-iK2Eab-f-267" value="&lt;div style=&quot;&quot;&gt;&lt;span style=&quot;background-color: initial;&quot;&gt;Модель&lt;/span&gt;&lt;/div&gt;" style="shape=display;whiteSpace=wrap;html=1;fontSize=22;fontFamily=isocpeur;align=center;" parent="1" vertex="1">
          <mxGeometry x="1794.0002022312292" y="1617.506340957926" width="168.05094221367986" height="63.41491536083015" as="geometry" />
        </mxCell>
        <mxCell id="G5mgxXajQfwZSKG5oSLH-10" style="edgeStyle=orthogonalEdgeStyle;rounded=0;orthogonalLoop=1;jettySize=auto;html=1;exitX=0.5;exitY=1;exitDx=0;exitDy=0;strokeWidth=2;endArrow=none;endFill=0;" parent="1" source="RtJh5RVURmU-iK2Eab-f-268" edge="1">
          <mxGeometry relative="1" as="geometry">
            <mxPoint x="1887" y="2055" as="targetPoint" />
          </mxGeometry>
        </mxCell>
        <mxCell id="RtJh5RVURmU-iK2Eab-f-268" value="&lt;font style=&quot;font-size: 22px;&quot; face=&quot;isocpeur&quot;&gt;Вывод названия концовки&lt;/font&gt;" style="rounded=0;whiteSpace=wrap;html=1;" parent="1" vertex="1">
          <mxGeometry x="1811.96720010028" y="1695.8987446341202" width="150.08394434462872" height="57.458395071727715" as="geometry" />
        </mxCell>
        <mxCell id="RtJh5RVURmU-iK2Eab-f-269" style="edgeStyle=orthogonalEdgeStyle;rounded=0;orthogonalLoop=1;jettySize=auto;html=1;exitX=0;exitY=0;exitDx=89.17811004334237;exitDy=63.41491536083015;exitPerimeter=0;entryX=0;entryY=0;entryDx=89.17811004334237;entryDy=0;entryPerimeter=0;endArrow=none;endFill=0;strokeWidth=2;" parent="1" source="RtJh5RVURmU-iK2Eab-f-263" target="RtJh5RVURmU-iK2Eab-f-267" edge="1">
          <mxGeometry relative="1" as="geometry" />
        </mxCell>
        <mxCell id="RtJh5RVURmU-iK2Eab-f-270" value="&lt;div style=&quot;font-size: 22px;&quot;&gt;Red2.txt&lt;/div&gt;" style="shape=cylinder3;whiteSpace=wrap;html=1;boundedLbl=1;backgroundOutline=1;size=15;rotation=0;textDirection=ltr;direction=south;fontSize=22;fontFamily=isocpeur;" parent="1" vertex="1">
          <mxGeometry x="1970.7606986169726" y="1445.9303991595639" width="157.5465775289349" height="67.21674583474281" as="geometry" />
        </mxCell>
        <mxCell id="G5mgxXajQfwZSKG5oSLH-21" style="edgeStyle=orthogonalEdgeStyle;rounded=0;orthogonalLoop=1;jettySize=auto;html=1;strokeWidth=2;endArrow=none;endFill=0;endSize=9;startArrow=openThin;startFill=0;startSize=9;" parent="1" edge="1">
          <mxGeometry relative="1" as="geometry">
            <mxPoint x="2303.26" y="1057.03" as="targetPoint" />
            <mxPoint x="2612" y="676" as="sourcePoint" />
            <Array as="points">
              <mxPoint x="2612" y="676" />
              <mxPoint x="2612" y="1057" />
            </Array>
          </mxGeometry>
        </mxCell>
        <mxCell id="G5mgxXajQfwZSKG5oSLH-22" value="" style="verticalLabelPosition=bottom;verticalAlign=top;html=1;shape=mxgraph.basic.arc;startAngle=0.25;endAngle=0.7563628056739959;rotation=90;direction=south;strokeWidth=2;fontFamily=isocpeur;" parent="1" vertex="1">
          <mxGeometry x="1557.9952508987108" y="1891.0407545950518" width="29.505709928136724" height="27.4830932323095" as="geometry" />
        </mxCell>
        <mxCell id="G5mgxXajQfwZSKG5oSLH-33" value="" style="verticalLabelPosition=bottom;verticalAlign=top;html=1;shape=mxgraph.basic.arc;startAngle=0.25;endAngle=0.7563628056739959;rotation=90;direction=south;strokeWidth=2;fontFamily=isocpeur;" parent="1" vertex="1">
          <mxGeometry x="1713.9952508987108" y="1891.0407545950518" width="29.505709928136724" height="27.4830932323095" as="geometry" />
        </mxCell>
        <mxCell id="G5mgxXajQfwZSKG5oSLH-34" value="" style="verticalLabelPosition=bottom;verticalAlign=top;html=1;shape=mxgraph.basic.arc;startAngle=0.25;endAngle=0.7563628056739959;rotation=90;direction=south;strokeWidth=2;fontFamily=isocpeur;" parent="1" vertex="1">
          <mxGeometry x="1872.9952508987108" y="1891.0407545950518" width="29.505709928136724" height="27.4830932323095" as="geometry" />
        </mxCell>
        <mxCell id="G5mgxXajQfwZSKG5oSLH-27" style="edgeStyle=orthogonalEdgeStyle;rounded=0;orthogonalLoop=1;jettySize=auto;html=1;exitX=0;exitY=0;exitDx=89.17811004334237;exitDy=63.41491536083016;exitPerimeter=0;entryX=1.01;entryY=0.525;entryDx=0;entryDy=0;entryPerimeter=0;strokeWidth=2;endArrow=none;endFill=0;" parent="1" source="RtJh5RVURmU-iK2Eab-f-319" target="G5mgxXajQfwZSKG5oSLH-22" edge="1">
          <mxGeometry relative="1" as="geometry">
            <mxPoint x="1330" y="1900" as="targetPoint" />
            <Array as="points">
              <mxPoint x="638.9982718422267" y="1904.0021522599827" />
            </Array>
          </mxGeometry>
        </mxCell>
        <mxCell id="G5mgxXajQfwZSKG5oSLH-35" value="" style="endArrow=none;html=1;rounded=0;strokeWidth=2;fontFamily=isocpeur;" parent="1" edge="1">
          <mxGeometry width="50" height="50" relative="1" as="geometry">
            <mxPoint x="1716" y="1905" as="sourcePoint" />
            <mxPoint x="1586" y="1904.8733187426224" as="targetPoint" />
          </mxGeometry>
        </mxCell>
        <mxCell id="G5mgxXajQfwZSKG5oSLH-36" value="" style="endArrow=none;html=1;rounded=0;strokeWidth=2;fontFamily=isocpeur;" parent="1" edge="1">
          <mxGeometry width="50" height="50" relative="1" as="geometry">
            <mxPoint x="1875" y="1904.75" as="sourcePoint" />
            <mxPoint x="1742" y="1904.6233187426224" as="targetPoint" />
          </mxGeometry>
        </mxCell>
        <mxCell id="G5mgxXajQfwZSKG5oSLH-37" style="edgeStyle=orthogonalEdgeStyle;rounded=0;orthogonalLoop=1;jettySize=auto;html=1;exitX=0.004;exitY=0.534;exitDx=0;exitDy=0;exitPerimeter=0;strokeWidth=2;endArrow=openThin;endFill=0;endSize=9;" parent="1" source="G5mgxXajQfwZSKG5oSLH-34" edge="1">
          <mxGeometry relative="1" as="geometry">
            <mxPoint x="2360" y="1220" as="targetPoint" />
            <mxPoint x="2050" y="1959" as="sourcePoint" />
            <Array as="points">
              <mxPoint x="2360" y="1905" />
            </Array>
          </mxGeometry>
        </mxCell>
        <mxCell id="NguQTIr1SdlHwa-LjI-z-2" value="" style="endArrow=openThin;html=1;rounded=0;endFill=0;endSize=10;strokeWidth=2;" parent="1" edge="1">
          <mxGeometry width="50" height="50" relative="1" as="geometry">
            <mxPoint x="611.23" y="722.38" as="sourcePoint" />
            <mxPoint x="611" y="695.82" as="targetPoint" />
          </mxGeometry>
        </mxCell>
        <mxCell id="NguQTIr1SdlHwa-LjI-z-4" value="" style="endArrow=openThin;html=1;rounded=0;endFill=0;endSize=10;strokeWidth=2;" parent="1" edge="1">
          <mxGeometry width="50" height="50" relative="1" as="geometry">
            <mxPoint x="870.23" y="722.38" as="sourcePoint" />
            <mxPoint x="870" y="695.82" as="targetPoint" />
          </mxGeometry>
        </mxCell>
        <mxCell id="NguQTIr1SdlHwa-LjI-z-6" value="" style="endArrow=openThin;html=1;rounded=0;endFill=0;endSize=10;strokeWidth=2;" parent="1" edge="1">
          <mxGeometry width="50" height="50" relative="1" as="geometry">
            <mxPoint x="960" y="1034" as="sourcePoint" />
            <mxPoint x="930" y="1034.22" as="targetPoint" />
          </mxGeometry>
        </mxCell>
        <mxCell id="NguQTIr1SdlHwa-LjI-z-7" value="" style="endArrow=openThin;html=1;rounded=0;endFill=0;endSize=10;strokeWidth=2;" parent="1" edge="1">
          <mxGeometry width="50" height="50" relative="1" as="geometry">
            <mxPoint x="410.5" y="1535.73" as="sourcePoint" />
            <mxPoint x="380.5" y="1535.95" as="targetPoint" />
          </mxGeometry>
        </mxCell>
        <mxCell id="NguQTIr1SdlHwa-LjI-z-9" value="" style="endArrow=openThin;html=1;rounded=0;endFill=0;endSize=10;strokeWidth=2;" parent="1" edge="1">
          <mxGeometry width="50" height="50" relative="1" as="geometry">
            <mxPoint x="862" y="1450.87" as="sourcePoint" />
            <mxPoint x="832" y="1451.0900000000001" as="targetPoint" />
          </mxGeometry>
        </mxCell>
        <mxCell id="NguQTIr1SdlHwa-LjI-z-11" value="" style="endArrow=openThin;html=1;rounded=0;endFill=0;endSize=10;strokeWidth=2;" parent="1" edge="1">
          <mxGeometry width="50" height="50" relative="1" as="geometry">
            <mxPoint x="349.9999999999999" y="1810.87" as="sourcePoint" />
            <mxPoint x="320" y="1811.0900000000001" as="targetPoint" />
          </mxGeometry>
        </mxCell>
        <mxCell id="NguQTIr1SdlHwa-LjI-z-19" value="" style="endArrow=openThin;html=1;rounded=0;endFill=0;endSize=10;strokeWidth=2;" parent="1" edge="1">
          <mxGeometry width="50" height="50" relative="1" as="geometry">
            <mxPoint x="1753.1999999999998" y="1205" as="sourcePoint" />
            <mxPoint x="1723.1999999999998" y="1205.22" as="targetPoint" />
          </mxGeometry>
        </mxCell>
        <mxCell id="NguQTIr1SdlHwa-LjI-z-25" value="" style="group" parent="1" vertex="1" connectable="0">
          <mxGeometry x="1560.0065592466242" y="1787.0294462471381" width="342.48309323230956" height="29.50570992813664" as="geometry" />
        </mxCell>
        <mxCell id="NguQTIr1SdlHwa-LjI-z-20" value="" style="verticalLabelPosition=bottom;verticalAlign=top;html=1;shape=mxgraph.basic.arc;startAngle=0.25;endAngle=0.7563628056739959;rotation=90;direction=south;strokeWidth=2;fontFamily=isocpeur;" parent="NguQTIr1SdlHwa-LjI-z-25" vertex="1">
          <mxGeometry x="-1.0113083479134275" y="1.0113083479136549" width="29.505709928136724" height="27.4830932323095" as="geometry" />
        </mxCell>
        <mxCell id="NguQTIr1SdlHwa-LjI-z-21" value="" style="verticalLabelPosition=bottom;verticalAlign=top;html=1;shape=mxgraph.basic.arc;startAngle=0.25;endAngle=0.7563628056739959;rotation=90;direction=south;strokeWidth=2;fontFamily=isocpeur;" parent="NguQTIr1SdlHwa-LjI-z-25" vertex="1">
          <mxGeometry x="154.98869165208657" y="1.0113083479136549" width="29.505709928136724" height="27.4830932323095" as="geometry" />
        </mxCell>
        <mxCell id="NguQTIr1SdlHwa-LjI-z-22" value="" style="verticalLabelPosition=bottom;verticalAlign=top;html=1;shape=mxgraph.basic.arc;startAngle=0.25;endAngle=0.7563628056739959;rotation=90;direction=south;strokeWidth=2;fontFamily=isocpeur;" parent="NguQTIr1SdlHwa-LjI-z-25" vertex="1">
          <mxGeometry x="313.9886916520866" y="1.0113083479136549" width="29.505709928136724" height="27.4830932323095" as="geometry" />
        </mxCell>
        <mxCell id="NguQTIr1SdlHwa-LjI-z-23" value="" style="endArrow=none;html=1;rounded=0;strokeWidth=2;fontFamily=isocpeur;" parent="NguQTIr1SdlHwa-LjI-z-25" edge="1">
          <mxGeometry width="50" height="50" relative="1" as="geometry">
            <mxPoint x="156.9934407533758" y="14.97055375286186" as="sourcePoint" />
            <mxPoint x="26.993440753375808" y="14.84387249548422" as="targetPoint" />
          </mxGeometry>
        </mxCell>
        <mxCell id="NguQTIr1SdlHwa-LjI-z-24" value="" style="endArrow=none;html=1;rounded=0;strokeWidth=2;fontFamily=isocpeur;" parent="NguQTIr1SdlHwa-LjI-z-25" edge="1">
          <mxGeometry width="50" height="50" relative="1" as="geometry">
            <mxPoint x="315.9934407533758" y="14.72055375286186" as="sourcePoint" />
            <mxPoint x="182.9934407533758" y="14.59387249548422" as="targetPoint" />
          </mxGeometry>
        </mxCell>
        <mxCell id="NguQTIr1SdlHwa-LjI-z-27" style="edgeStyle=orthogonalEdgeStyle;rounded=0;orthogonalLoop=1;jettySize=auto;html=1;exitX=0.004;exitY=0.534;exitDx=0;exitDy=0;exitPerimeter=0;strokeWidth=2;endArrow=openThin;endFill=0;endSize=9;" parent="1" edge="1">
          <mxGeometry relative="1" as="geometry">
            <mxPoint x="2600" y="1496" as="targetPoint" />
            <mxPoint x="2480.3797201060047" y="1800.7691070736496" as="sourcePoint" />
            <Array as="points">
              <mxPoint x="2520" y="1801" />
              <mxPoint x="2520" y="1801" />
            </Array>
          </mxGeometry>
        </mxCell>
        <mxCell id="NguQTIr1SdlHwa-LjI-z-29" value="" style="edgeStyle=orthogonalEdgeStyle;rounded=0;orthogonalLoop=1;jettySize=auto;html=1;exitX=0.004;exitY=0.534;exitDx=0;exitDy=0;exitPerimeter=0;strokeWidth=2;endArrow=none;endFill=0;endSize=9;" parent="1" edge="1">
          <mxGeometry relative="1" as="geometry">
            <mxPoint x="2345.0065592466244" y="1801.6873845365715" as="targetPoint" />
            <mxPoint x="1902.5" y="1801.18" as="sourcePoint" />
            <Array as="points">
              <mxPoint x="2124" y="1801" />
              <mxPoint x="2124" y="1800" />
            </Array>
          </mxGeometry>
        </mxCell>
        <mxCell id="NguQTIr1SdlHwa-LjI-z-28" value="" style="verticalLabelPosition=bottom;verticalAlign=top;html=1;shape=mxgraph.basic.arc;startAngle=0.25;endAngle=0.7563628056739959;rotation=90;direction=south;strokeWidth=2;fontFamily=isocpeur;" parent="1" vertex="1">
          <mxGeometry x="2343.9952508987108" y="1787.0507545950518" width="29.505709928136724" height="27.4830932323095" as="geometry" />
        </mxCell>
        <mxCell id="NguQTIr1SdlHwa-LjI-z-34" value="" style="edgeStyle=orthogonalEdgeStyle;rounded=0;orthogonalLoop=1;jettySize=auto;html=1;exitX=0.004;exitY=0.534;exitDx=0;exitDy=0;exitPerimeter=0;strokeWidth=2;endArrow=none;endFill=0;endSize=9;" parent="1" source="NguQTIr1SdlHwa-LjI-z-28" target="NguQTIr1SdlHwa-LjI-z-33" edge="1">
          <mxGeometry relative="1" as="geometry">
            <mxPoint x="2600" y="1800" as="targetPoint" />
            <mxPoint x="2372" y="1800" as="sourcePoint" />
            <Array as="points" />
          </mxGeometry>
        </mxCell>
        <mxCell id="NguQTIr1SdlHwa-LjI-z-33" value="" style="verticalLabelPosition=bottom;verticalAlign=top;html=1;shape=mxgraph.basic.arc;startAngle=0.25;endAngle=0.7563628056739959;rotation=90;direction=south;strokeWidth=2;fontFamily=isocpeur;" parent="1" vertex="1">
          <mxGeometry x="2451.9952508987108" y="1787.0307545950518" width="29.505709928136724" height="27.4830932323095" as="geometry" />
        </mxCell>
        <mxCell id="NguQTIr1SdlHwa-LjI-z-39" value="" style="endArrow=openThin;html=1;rounded=0;endFill=0;endSize=10;strokeWidth=2;" parent="1" edge="1">
          <mxGeometry width="50" height="50" relative="1" as="geometry">
            <mxPoint x="1911.1999999999998" y="1532" as="sourcePoint" />
            <mxPoint x="1881.1999999999998" y="1532.22" as="targetPoint" />
          </mxGeometry>
        </mxCell>
        <mxCell id="NguQTIr1SdlHwa-LjI-z-45" style="edgeStyle=orthogonalEdgeStyle;rounded=0;orthogonalLoop=1;jettySize=auto;html=1;exitX=0;exitY=0;exitDx=89.17811004334237;exitDy=63.41491536083015;exitPerimeter=0;strokeWidth=2;endArrow=openThin;endFill=0;endSize=10;" parent="1" source="RtJh5RVURmU-iK2Eab-f-328" edge="1">
          <mxGeometry relative="1" as="geometry">
            <mxPoint x="210" y="2150" as="targetPoint" />
            <Array as="points">
              <mxPoint x="1585" y="2150" />
            </Array>
          </mxGeometry>
        </mxCell>
        <mxCell id="RtJh5RVURmU-iK2Eab-f-328" value="&lt;div style=&quot;&quot;&gt;&lt;span style=&quot;background-color: initial;&quot;&gt;На главную форму&lt;/span&gt;&lt;/div&gt;" style="shape=display;whiteSpace=wrap;html=1;fontSize=22;fontFamily=isocpeur;align=center;" parent="1" vertex="1">
          <mxGeometry x="1495.5342744327916" y="2073.0040533896167" width="168.05094221367986" height="63.41491536083015" as="geometry" />
        </mxCell>
        <mxCell id="NguQTIr1SdlHwa-LjI-z-42" value="&lt;font style=&quot;font-size: 22px;&quot; face=&quot;isocpeur&quot;&gt;Начало&lt;/font&gt;" style="rounded=1;whiteSpace=wrap;html=1;arcSize=46;" parent="1" vertex="1">
          <mxGeometry x="1508.1599999999999" y="152" width="151.92" height="60" as="geometry" />
        </mxCell>
        <mxCell id="NguQTIr1SdlHwa-LjI-z-52" style="edgeStyle=orthogonalEdgeStyle;rounded=0;orthogonalLoop=1;jettySize=auto;html=1;exitX=0.542;exitY=0.039;exitDx=0;exitDy=0;strokeWidth=2;endArrow=none;endFill=0;exitPerimeter=0;" parent="1" source="NguQTIr1SdlHwa-LjI-z-43" edge="1">
          <mxGeometry relative="1" as="geometry">
            <mxPoint x="165" y="2160" as="targetPoint" />
            <mxPoint x="1317.08" y="2201" as="sourcePoint" />
            <Array as="points">
              <mxPoint x="1579" y="2201" />
              <mxPoint x="1580" y="2181" />
              <mxPoint x="165" y="2181" />
            </Array>
          </mxGeometry>
        </mxCell>
        <mxCell id="NguQTIr1SdlHwa-LjI-z-43" value="&lt;font style=&quot;font-size: 22px;&quot; face=&quot;isocpeur&quot;&gt;Конец&lt;/font&gt;" style="rounded=1;whiteSpace=wrap;html=1;arcSize=46;" parent="1" vertex="1">
          <mxGeometry x="1502.79" y="2200" width="151.92" height="60" as="geometry" />
        </mxCell>
        <mxCell id="NguQTIr1SdlHwa-LjI-z-50" style="edgeStyle=orthogonalEdgeStyle;rounded=0;orthogonalLoop=1;jettySize=auto;html=1;exitX=1.066;exitY=0.518;exitDx=0;exitDy=0;exitPerimeter=0;strokeWidth=2;endArrow=openThin;endFill=0;endSize=10;" parent="1" edge="1">
          <mxGeometry relative="1" as="geometry">
            <mxPoint x="162" y="535" as="targetPoint" />
            <mxPoint x="197.37538401171196" y="534.5686077583621" as="sourcePoint" />
            <Array as="points">
              <mxPoint x="162" y="535" />
            </Array>
          </mxGeometry>
        </mxCell>
        <mxCell id="NguQTIr1SdlHwa-LjI-z-51" value="" style="endArrow=none;html=1;rounded=0;strokeWidth=2;startArrow=none;startFill=0;startSize=9;" parent="1" edge="1">
          <mxGeometry width="50" height="50" relative="1" as="geometry">
            <mxPoint x="165" y="533.94" as="sourcePoint" />
            <mxPoint x="165" y="2170" as="targetPoint" />
          </mxGeometry>
        </mxCell>
        <mxCell id="NguQTIr1SdlHwa-LjI-z-54" value="" style="verticalLabelPosition=bottom;verticalAlign=top;html=1;shape=mxgraph.basic.arc;startAngle=0.25;endAngle=0.7563628056739959;rotation=0;direction=south;strokeWidth=2;fontFamily=isocpeur;" parent="1" vertex="1">
          <mxGeometry x="1185.0014070930324" y="410.00144931696514" width="31.234967963114663" height="28.698775729466032" as="geometry" />
        </mxCell>
        <mxCell id="NguQTIr1SdlHwa-LjI-z-55" style="edgeStyle=orthogonalEdgeStyle;rounded=0;orthogonalLoop=1;jettySize=auto;html=1;exitX=1.066;exitY=0.518;exitDx=0;exitDy=0;exitPerimeter=0;strokeWidth=2;endArrow=none;endFill=0;endSize=10;entryX=1.048;entryY=0.514;entryDx=0;entryDy=0;entryPerimeter=0;" parent="1" target="NguQTIr1SdlHwa-LjI-z-54" edge="1">
          <mxGeometry relative="1" as="geometry">
            <mxPoint x="1200" y="450" as="targetPoint" />
            <mxPoint x="1207.175384011712" y="609.9986077583621" as="sourcePoint" />
            <Array as="points">
              <mxPoint x="1200" y="610" />
            </Array>
          </mxGeometry>
        </mxCell>
        <mxCell id="NguQTIr1SdlHwa-LjI-z-59" value="" style="endArrow=openThin;html=1;rounded=0;strokeWidth=2;endFill=0;endSize=10;" parent="1" edge="1">
          <mxGeometry width="50" height="50" relative="1" as="geometry">
            <mxPoint x="1200" y="411.64" as="sourcePoint" />
            <mxPoint x="1200" y="320" as="targetPoint" />
          </mxGeometry>
        </mxCell>
        <mxCell id="NguQTIr1SdlHwa-LjI-z-61" value="" style="group" parent="1" connectable="0" vertex="1">
          <mxGeometry x="2464" y="2084" width="829.1321999999999" height="236" as="geometry" />
        </mxCell>
        <UserObject label="" tags="Фон" id="COeZKT1pooXrTItKmlAN-2">
          <mxCell style="vsdxID=5;edgeStyle=none;startArrow=none;endArrow=none;startSize=5;endSize=5;strokeWidth=3;spacingTop=0;spacingBottom=0;spacingLeft=0;spacingRight=0;verticalAlign=middle;html=1;labelBackgroundColor=none;rounded=0;fontColor=default;movable=0;resizable=0;rotatable=0;deletable=0;editable=0;locked=1;connectable=0;" parent="NguQTIr1SdlHwa-LjI-z-61" edge="1">
            <mxGeometry relative="1" as="geometry">
              <Array as="points" />
              <mxPoint x="15.11431312904369" y="236" as="sourcePoint" />
              <mxPoint x="15.11431312904369" y="16" as="targetPoint" />
            </mxGeometry>
          </mxCell>
        </UserObject>
        <UserObject label="" tags="Фон" id="COeZKT1pooXrTItKmlAN-4">
          <mxCell style="vsdxID=6;edgeStyle=none;startArrow=none;endArrow=none;startSize=5;endSize=5;strokeWidth=3;spacingTop=0;spacingBottom=0;spacingLeft=0;spacingRight=0;verticalAlign=middle;html=1;labelBackgroundColor=none;rounded=0;fontColor=default;movable=0;resizable=0;rotatable=0;deletable=0;editable=0;locked=1;connectable=0;" parent="NguQTIr1SdlHwa-LjI-z-61" edge="1">
            <mxGeometry relative="1" as="geometry">
              <mxPoint as="offset" />
              <Array as="points" />
              <mxPoint x="15.11431312904369" y="76" as="sourcePoint" />
              <mxPoint x="814.0137213784902" y="76" as="targetPoint" />
            </mxGeometry>
          </mxCell>
        </UserObject>
        <UserObject label="&lt;div style=&quot;font-size: 1px&quot;&gt;&lt;/div&gt;" tags="Фон" id="COeZKT1pooXrTItKmlAN-5">
          <mxCell style="vsdxID=7;edgeStyle=none;startArrow=none;endArrow=none;startSize=5;endSize=5;strokeWidth=3;spacingTop=0;spacingBottom=0;spacingLeft=0;spacingRight=0;verticalAlign=middle;html=1;labelBackgroundColor=none;rounded=0;align=center;overflow=width;fontColor=default;movable=0;resizable=0;rotatable=0;deletable=0;editable=0;locked=1;connectable=0;" parent="NguQTIr1SdlHwa-LjI-z-61" edge="1">
            <mxGeometry relative="1" as="geometry">
              <mxPoint as="offset" />
              <Array as="points" />
              <mxPoint x="15.11431312904369" y="176" as="sourcePoint" />
              <mxPoint x="814.0137213784902" y="176" as="targetPoint" />
            </mxGeometry>
          </mxCell>
        </UserObject>
        <UserObject label="" tags="Фон" id="COeZKT1pooXrTItKmlAN-6">
          <mxCell style="vsdxID=8;edgeStyle=none;startArrow=none;endArrow=none;startSize=5;endSize=5;strokeWidth=3;spacingTop=0;spacingBottom=0;spacingLeft=0;spacingRight=0;verticalAlign=middle;html=1;labelBackgroundColor=none;rounded=0;fontColor=default;movable=0;resizable=0;rotatable=0;deletable=0;editable=0;locked=1;connectable=0;" parent="NguQTIr1SdlHwa-LjI-z-61" edge="1">
            <mxGeometry relative="1" as="geometry">
              <Array as="points" />
              <mxPoint x="88.52669118439806" y="236" as="sourcePoint" />
              <mxPoint x="88.52669118439806" y="16" as="targetPoint" />
            </mxGeometry>
          </mxCell>
        </UserObject>
        <UserObject label="" tags="Фон" id="COeZKT1pooXrTItKmlAN-7">
          <mxCell style="vsdxID=9;edgeStyle=none;startArrow=none;endArrow=none;startSize=5;endSize=5;strokeWidth=3;spacingTop=0;spacingBottom=0;spacingLeft=0;spacingRight=0;verticalAlign=middle;html=1;labelBackgroundColor=none;rounded=0;fontColor=default;movable=0;resizable=0;rotatable=0;deletable=0;editable=0;locked=1;connectable=0;" parent="NguQTIr1SdlHwa-LjI-z-61" edge="1">
            <mxGeometry relative="1" as="geometry">
              <Array as="points" />
              <mxPoint x="187.84932031811343" y="236" as="sourcePoint" />
              <mxPoint x="187.84932031811343" y="16" as="targetPoint" />
            </mxGeometry>
          </mxCell>
        </UserObject>
        <UserObject label="" tags="Фон" id="COeZKT1pooXrTItKmlAN-8">
          <mxCell style="vsdxID=10;edgeStyle=none;startArrow=none;endArrow=none;startSize=5;endSize=5;strokeWidth=3;spacingTop=0;spacingBottom=0;spacingLeft=0;spacingRight=0;verticalAlign=middle;html=1;labelBackgroundColor=none;rounded=0;fontColor=default;movable=0;resizable=0;rotatable=0;deletable=0;editable=0;locked=1;connectable=0;" parent="NguQTIr1SdlHwa-LjI-z-61" edge="1">
            <mxGeometry relative="1" as="geometry">
              <Array as="points" />
              <mxPoint x="252.6249480140141" y="236" as="sourcePoint" />
              <mxPoint x="252.6249480140141" y="16" as="targetPoint" />
            </mxGeometry>
          </mxCell>
        </UserObject>
        <UserObject label="" tags="Фон" id="COeZKT1pooXrTItKmlAN-9">
          <mxCell style="vsdxID=11;edgeStyle=none;startArrow=none;endArrow=none;startSize=5;endSize=5;strokeWidth=3;spacingTop=0;spacingBottom=0;spacingLeft=0;spacingRight=0;verticalAlign=middle;html=1;labelBackgroundColor=none;rounded=0;fontColor=default;movable=0;resizable=0;rotatable=0;deletable=0;editable=0;locked=1;connectable=0;" parent="NguQTIr1SdlHwa-LjI-z-61" edge="1">
            <mxGeometry relative="1" as="geometry">
              <Array as="points" />
              <mxPoint x="295.80869981128154" y="236" as="sourcePoint" />
              <mxPoint x="295.80869981128154" y="16" as="targetPoint" />
            </mxGeometry>
          </mxCell>
        </UserObject>
        <UserObject label="" tags="Фон" id="COeZKT1pooXrTItKmlAN-10">
          <mxCell style="vsdxID=12;edgeStyle=none;startArrow=none;endArrow=none;startSize=5;endSize=5;strokeWidth=3;spacingTop=0;spacingBottom=0;spacingLeft=0;spacingRight=0;verticalAlign=middle;html=1;labelBackgroundColor=none;rounded=0;fontColor=default;movable=0;resizable=0;rotatable=0;deletable=0;editable=0;locked=1;connectable=0;" parent="NguQTIr1SdlHwa-LjI-z-61" edge="1">
            <mxGeometry relative="1" as="geometry">
              <Array as="points" />
              <mxPoint x="598.0949623921535" y="236" as="sourcePoint" />
              <mxPoint x="598.0949623921535" y="76" as="targetPoint" />
            </mxGeometry>
          </mxCell>
        </UserObject>
        <UserObject label="" tags="Фон" id="COeZKT1pooXrTItKmlAN-11">
          <mxCell style="vsdxID=13;edgeStyle=none;startArrow=none;endArrow=none;startSize=5;endSize=5;spacingTop=0;spacingBottom=0;spacingLeft=0;spacingRight=0;verticalAlign=middle;html=1;labelBackgroundColor=none;rounded=0;fontColor=default;movable=0;resizable=0;rotatable=0;deletable=0;editable=0;locked=1;connectable=0;" parent="NguQTIr1SdlHwa-LjI-z-61" edge="1">
            <mxGeometry relative="1" as="geometry">
              <Array as="points" />
              <mxPoint x="15.11431312904369" y="216" as="sourcePoint" />
              <mxPoint x="295.80869981128154" y="216" as="targetPoint" />
            </mxGeometry>
          </mxCell>
        </UserObject>
        <UserObject label="" tags="Фон" id="COeZKT1pooXrTItKmlAN-12">
          <mxCell style="vsdxID=14;edgeStyle=none;startArrow=none;endArrow=none;startSize=5;endSize=5;spacingTop=0;spacingBottom=0;spacingLeft=0;spacingRight=0;verticalAlign=middle;html=1;labelBackgroundColor=none;rounded=0;fontColor=default;movable=0;resizable=0;rotatable=0;deletable=0;editable=0;locked=1;connectable=0;" parent="NguQTIr1SdlHwa-LjI-z-61" edge="1">
            <mxGeometry relative="1" as="geometry">
              <Array as="points" />
              <mxPoint x="15.11431312904369" y="196" as="sourcePoint" />
              <mxPoint x="295.80869981128154" y="196" as="targetPoint" />
            </mxGeometry>
          </mxCell>
        </UserObject>
        <mxCell id="COeZKT1pooXrTItKmlAN-13" value="&lt;div style=&quot;font-size: 1px&quot;&gt;&lt;/div&gt;" style="text;vsdxID=14;edgeStyle=none;startArrow=none;endArrow=none;startSize=5;endSize=5;strokeColor=none;spacingTop=0;spacingBottom=0;spacingLeft=0;spacingRight=0;verticalAlign=middle;html=1;labelBackgroundColor=none;rounded=0;align=center;overflow=width;fillColor=none;whiteSpace=wrap;;html=1;;rotation=5.684341886080802e-14;movable=0;resizable=0;rotatable=0;deletable=0;editable=0;locked=1;connectable=0;" parent="COeZKT1pooXrTItKmlAN-12" vertex="1">
          <mxGeometry width="260" height="1" relative="1" as="geometry">
            <mxPoint x="-130" y="-0.5" as="offset" />
          </mxGeometry>
        </mxCell>
        <UserObject label="" tags="Фон" id="COeZKT1pooXrTItKmlAN-14">
          <mxCell style="vsdxID=15;edgeStyle=none;startArrow=none;endArrow=none;startSize=5;endSize=5;spacingTop=0;spacingBottom=0;spacingLeft=0;spacingRight=0;verticalAlign=middle;html=1;labelBackgroundColor=none;rounded=0;fontColor=default;movable=0;resizable=0;rotatable=0;deletable=0;editable=0;locked=1;connectable=0;" parent="NguQTIr1SdlHwa-LjI-z-61" edge="1">
            <mxGeometry relative="1" as="geometry">
              <Array as="points" />
              <mxPoint x="15.11431312904369" y="156" as="sourcePoint" />
              <mxPoint x="295.80869981128154" y="156" as="targetPoint" />
            </mxGeometry>
          </mxCell>
        </UserObject>
        <UserObject label="" tags="Фон" id="COeZKT1pooXrTItKmlAN-15">
          <mxCell style="vsdxID=16;edgeStyle=none;startArrow=none;endArrow=none;startSize=5;endSize=5;spacingTop=0;spacingBottom=0;spacingLeft=0;spacingRight=0;verticalAlign=middle;html=1;labelBackgroundColor=none;rounded=0;fontColor=default;movable=0;resizable=0;rotatable=0;deletable=0;editable=0;locked=1;connectable=0;" parent="NguQTIr1SdlHwa-LjI-z-61" edge="1">
            <mxGeometry relative="1" as="geometry">
              <Array as="points" />
              <mxPoint x="15.11431312904369" y="136" as="sourcePoint" />
              <mxPoint x="295.80869981128154" y="136" as="targetPoint" />
            </mxGeometry>
          </mxCell>
        </UserObject>
        <mxCell id="COeZKT1pooXrTItKmlAN-16" value="&lt;div style=&quot;font-size: 1px&quot;&gt;&lt;/div&gt;" style="text;vsdxID=16;edgeStyle=none;startArrow=none;endArrow=none;startSize=5;endSize=5;strokeColor=none;spacingTop=0;spacingBottom=0;spacingLeft=0;spacingRight=0;verticalAlign=middle;html=1;labelBackgroundColor=none;rounded=0;align=center;overflow=width;fillColor=none;whiteSpace=wrap;;html=1;;rotation=5.684341886080802e-14;movable=0;resizable=0;rotatable=0;deletable=0;editable=0;locked=1;connectable=0;" parent="COeZKT1pooXrTItKmlAN-15" vertex="1">
          <mxGeometry width="260" height="1" relative="1" as="geometry">
            <mxPoint x="-130" y="-0.5" as="offset" />
          </mxGeometry>
        </mxCell>
        <UserObject label="" tags="Фон" id="COeZKT1pooXrTItKmlAN-17">
          <mxCell style="vsdxID=17;edgeStyle=none;startArrow=none;endArrow=none;startSize=5;endSize=5;strokeWidth=3;spacingTop=0;spacingBottom=0;spacingLeft=0;spacingRight=0;verticalAlign=middle;html=1;labelBackgroundColor=none;rounded=0;fontColor=default;movable=0;resizable=0;rotatable=0;deletable=0;editable=0;locked=1;connectable=0;" parent="NguQTIr1SdlHwa-LjI-z-61" edge="1">
            <mxGeometry relative="1" as="geometry">
              <Array as="points" />
              <mxPoint x="15.11431312904369" y="116" as="sourcePoint" />
              <mxPoint x="295.80869981128154" y="116" as="targetPoint" />
            </mxGeometry>
          </mxCell>
        </UserObject>
        <mxCell id="COeZKT1pooXrTItKmlAN-18" value="&lt;div style=&quot;font-size: 1px&quot;&gt;&lt;/div&gt;" style="text;vsdxID=17;edgeStyle=none;startArrow=none;endArrow=none;startSize=5;endSize=5;strokeWidth=3;strokeColor=none;spacingTop=0;spacingBottom=0;spacingLeft=0;spacingRight=0;verticalAlign=middle;html=1;labelBackgroundColor=none;rounded=0;align=center;overflow=width;fillColor=none;whiteSpace=wrap;;html=1;;rotation=5.684341886080802e-14;movable=0;resizable=0;rotatable=0;deletable=0;editable=0;locked=1;connectable=0;" parent="COeZKT1pooXrTItKmlAN-17" vertex="1">
          <mxGeometry width="260" height="1" relative="1" as="geometry">
            <mxPoint x="-130" y="-0.5" as="offset" />
          </mxGeometry>
        </mxCell>
        <UserObject label="" tags="Фон" id="COeZKT1pooXrTItKmlAN-19">
          <mxCell style="vsdxID=18;edgeStyle=none;startArrow=none;endArrow=none;startSize=5;endSize=5;strokeWidth=3;spacingTop=0;spacingBottom=0;spacingLeft=0;spacingRight=0;verticalAlign=middle;html=1;labelBackgroundColor=none;rounded=0;fontColor=default;movable=0;resizable=0;rotatable=0;deletable=0;editable=0;locked=1;connectable=0;" parent="NguQTIr1SdlHwa-LjI-z-61" edge="1">
            <mxGeometry relative="1" as="geometry">
              <Array as="points" />
              <mxPoint x="15.11431312904369" y="96" as="sourcePoint" />
              <mxPoint x="295.80869981128154" y="96" as="targetPoint" />
            </mxGeometry>
          </mxCell>
        </UserObject>
        <UserObject label="" tags="Фон" id="COeZKT1pooXrTItKmlAN-20">
          <mxCell style="vsdxID=19;edgeStyle=none;startArrow=none;endArrow=none;startSize=5;endSize=5;spacingTop=0;spacingBottom=0;spacingLeft=0;spacingRight=0;verticalAlign=middle;html=1;labelBackgroundColor=none;rounded=0;fontColor=default;movable=0;resizable=0;rotatable=0;deletable=0;editable=0;locked=1;connectable=0;" parent="NguQTIr1SdlHwa-LjI-z-61" edge="1">
            <mxGeometry relative="1" as="geometry">
              <Array as="points" />
              <mxPoint x="15.11431312904369" y="56" as="sourcePoint" />
              <mxPoint x="295.80869981128154" y="56" as="targetPoint" />
            </mxGeometry>
          </mxCell>
        </UserObject>
        <UserObject label="" tags="Фон" id="COeZKT1pooXrTItKmlAN-22">
          <mxCell style="vsdxID=21;edgeStyle=none;startArrow=none;endArrow=none;startSize=5;endSize=5;strokeWidth=3;spacingTop=0;spacingBottom=0;spacingLeft=0;spacingRight=0;verticalAlign=middle;html=1;labelBackgroundColor=none;rounded=0;fontColor=default;movable=0;resizable=0;rotatable=0;deletable=0;editable=0;locked=1;connectable=0;" parent="NguQTIr1SdlHwa-LjI-z-61" edge="1">
            <mxGeometry relative="1" as="geometry">
              <Array as="points" />
              <mxPoint x="45.34293938713063" y="16" as="sourcePoint" />
              <mxPoint x="45.34293938713063" y="116" as="targetPoint" />
            </mxGeometry>
          </mxCell>
        </UserObject>
        <mxCell id="COeZKT1pooXrTItKmlAN-23" value="&lt;div style=&quot;font-size: 1px&quot;&gt;&lt;/div&gt;" style="text;vsdxID=21;edgeStyle=none;startArrow=none;endArrow=none;startSize=5;endSize=5;strokeWidth=3;strokeColor=none;spacingTop=0;spacingBottom=0;spacingLeft=0;spacingRight=0;verticalAlign=middle;html=1;labelBackgroundColor=none;rounded=0;align=center;overflow=width;fillColor=none;whiteSpace=wrap;;html=1;;rotation=269.9999999999998;movable=0;resizable=0;rotatable=0;deletable=0;editable=0;locked=1;connectable=0;" parent="COeZKT1pooXrTItKmlAN-22" vertex="1">
          <mxGeometry width="100" height="1" relative="1" as="geometry">
            <mxPoint x="-50" y="-0.5" as="offset" />
          </mxGeometry>
        </mxCell>
        <UserObject label="" tags="Фон" id="COeZKT1pooXrTItKmlAN-24">
          <mxCell style="vsdxID=22;edgeStyle=none;startArrow=none;endArrow=none;startSize=5;endSize=5;strokeWidth=3;spacingTop=0;spacingBottom=0;spacingLeft=0;spacingRight=0;verticalAlign=middle;html=1;labelBackgroundColor=none;rounded=0;fontColor=default;movable=0;resizable=0;rotatable=0;deletable=0;editable=0;locked=1;connectable=0;" parent="NguQTIr1SdlHwa-LjI-z-61" edge="1">
            <mxGeometry relative="1" as="geometry">
              <mxPoint as="offset" />
              <Array as="points" />
              <mxPoint x="598.0949623921535" y="156" as="sourcePoint" />
              <mxPoint x="814.0137213784902" y="156" as="targetPoint" />
            </mxGeometry>
          </mxCell>
        </UserObject>
        <UserObject label="" tags="Фон" id="COeZKT1pooXrTItKmlAN-25">
          <mxCell style="vsdxID=23;edgeStyle=none;startArrow=none;endArrow=none;startSize=5;endSize=5;strokeWidth=3;spacingTop=0;spacingBottom=0;spacingLeft=0;spacingRight=0;verticalAlign=middle;html=1;labelBackgroundColor=none;rounded=0;fontColor=default;movable=0;resizable=0;rotatable=0;deletable=0;editable=0;locked=1;connectable=0;" parent="NguQTIr1SdlHwa-LjI-z-61" edge="1">
            <mxGeometry relative="1" as="geometry">
              <mxPoint as="offset" />
              <Array as="points" />
              <mxPoint x="598.0949623921535" y="96" as="sourcePoint" />
              <mxPoint x="814.0137213784902" y="96" as="targetPoint" />
            </mxGeometry>
          </mxCell>
        </UserObject>
        <UserObject label="" tags="Фон" id="COeZKT1pooXrTItKmlAN-26">
          <mxCell style="vsdxID=24;edgeStyle=none;startArrow=none;endArrow=none;startSize=5;endSize=5;spacingTop=0;spacingBottom=0;spacingLeft=0;spacingRight=0;verticalAlign=middle;html=1;labelBackgroundColor=none;rounded=0;fontColor=default;movable=0;resizable=0;rotatable=0;deletable=0;editable=0;locked=1;connectable=0;" parent="NguQTIr1SdlHwa-LjI-z-61" edge="1">
            <mxGeometry relative="1" as="geometry">
              <Array as="points" />
              <mxPoint x="619.6868382907873" y="96" as="sourcePoint" />
              <mxPoint x="619.6868382907873" y="156" as="targetPoint" />
            </mxGeometry>
          </mxCell>
        </UserObject>
        <UserObject label="" tags="Фон" id="COeZKT1pooXrTItKmlAN-27">
          <mxCell style="vsdxID=25;edgeStyle=none;startArrow=none;endArrow=none;startSize=5;endSize=5;spacingTop=0;spacingBottom=0;spacingLeft=0;spacingRight=0;verticalAlign=middle;html=1;labelBackgroundColor=none;rounded=0;fontColor=default;movable=0;resizable=0;rotatable=0;deletable=0;editable=0;locked=1;connectable=0;" parent="NguQTIr1SdlHwa-LjI-z-61" edge="1">
            <mxGeometry relative="1" as="geometry">
              <Array as="points" />
              <mxPoint x="641.278714189421" y="96" as="sourcePoint" />
              <mxPoint x="641.278714189421" y="156" as="targetPoint" />
            </mxGeometry>
          </mxCell>
        </UserObject>
        <UserObject label="" tags="Фон" id="COeZKT1pooXrTItKmlAN-28">
          <mxCell style="vsdxID=26;edgeStyle=none;startArrow=none;endArrow=none;startSize=5;endSize=5;strokeWidth=3;spacingTop=0;spacingBottom=0;spacingLeft=0;spacingRight=0;verticalAlign=middle;html=1;labelBackgroundColor=none;rounded=0;fontColor=default;movable=0;resizable=0;rotatable=0;deletable=0;editable=0;locked=1;connectable=0;" parent="NguQTIr1SdlHwa-LjI-z-61" edge="1">
            <mxGeometry relative="1" as="geometry">
              <Array as="points" />
              <mxPoint x="662.8705900880548" y="76" as="sourcePoint" />
              <mxPoint x="662.8705900880548" y="156" as="targetPoint" />
            </mxGeometry>
          </mxCell>
        </UserObject>
        <UserObject label="" tags="Фон" id="COeZKT1pooXrTItKmlAN-29">
          <mxCell style="vsdxID=27;edgeStyle=none;startArrow=none;endArrow=none;startSize=5;endSize=5;strokeWidth=3;spacingTop=0;spacingBottom=0;spacingLeft=0;spacingRight=0;verticalAlign=middle;html=1;labelBackgroundColor=none;rounded=0;fontColor=default;movable=0;resizable=0;rotatable=0;deletable=0;editable=0;locked=1;connectable=0;" parent="NguQTIr1SdlHwa-LjI-z-61" edge="1">
            <mxGeometry relative="1" as="geometry">
              <Array as="points" />
              <mxPoint x="734.1237805535459" y="76" as="sourcePoint" />
              <mxPoint x="734.1237805535459" y="156" as="targetPoint" />
            </mxGeometry>
          </mxCell>
        </UserObject>
        <UserObject label="" tags="Фон" id="COeZKT1pooXrTItKmlAN-30">
          <mxCell style="vsdxID=28;edgeStyle=none;startArrow=none;endArrow=none;startSize=5;endSize=5;strokeWidth=3;spacingTop=0;spacingBottom=0;spacingLeft=0;spacingRight=0;verticalAlign=middle;html=1;labelBackgroundColor=none;rounded=0;fontColor=default;movable=0;resizable=0;rotatable=0;deletable=0;editable=0;locked=1;connectable=0;" parent="NguQTIr1SdlHwa-LjI-z-61" edge="1">
            <mxGeometry relative="1" as="geometry">
              <Array as="points" />
              <mxPoint x="684.4624659866885" y="156" as="sourcePoint" />
              <mxPoint x="684.4624659866885" y="176" as="targetPoint" />
            </mxGeometry>
          </mxCell>
        </UserObject>
        <UserObject label="&lt;div style=&quot;font-size: 1px&quot;&gt;&lt;p style=&quot;text-align:center;margin-left:0;margin-right:0;margin-top:0px;margin-bottom:0px;text-indent:0;vertical-align:middle;direction:ltr;&quot;&gt;&lt;font style=&quot;font-size:12.7px;font-family:ISOCPEUR;color:#000000;direction:ltr;letter-spacing:0px;line-height:120%;opacity:1&quot;&gt;&lt;i&gt;Н.контроль&lt;br/&gt;&lt;/i&gt;&lt;/font&gt;&lt;/p&gt;&lt;/div&gt;" tags="Фон" id="COeZKT1pooXrTItKmlAN-31">
          <mxCell style="verticalAlign=middle;align=center;overflow=width;vsdxID=3;fillColor=none;strokeColor=none;points=[];labelBackgroundColor=none;rounded=0;html=1;whiteSpace=wrap;movable=0;resizable=0;rotatable=0;deletable=0;editable=0;locked=1;connectable=0;" parent="NguQTIr1SdlHwa-LjI-z-61" vertex="1">
            <mxGeometry x="10" y="197" width="76" height="19" as="geometry" />
          </mxCell>
        </UserObject>
        <UserObject label="&lt;div style=&quot;font-size: 1px&quot;&gt;&lt;p style=&quot;text-align:center;margin-left:0;margin-right:0;margin-top:0px;margin-bottom:0px;text-indent:0;vertical-align:middle;direction:ltr;&quot;&gt;&lt;font style=&quot;font-size:12.7px;font-family:ISOCPEUR;color:#000000;direction:ltr;letter-spacing:0px;line-height:120%;opacity:1&quot;&gt;&lt;i&gt;Утв.&lt;br/&gt;&lt;/i&gt;&lt;/font&gt;&lt;/p&gt;&lt;/div&gt;" tags="Фон" id="COeZKT1pooXrTItKmlAN-32">
          <mxCell style="verticalAlign=middle;align=center;overflow=width;vsdxID=30;fillColor=none;strokeColor=none;points=[];labelBackgroundColor=none;rounded=0;html=1;whiteSpace=wrap;movable=0;resizable=0;rotatable=0;deletable=0;editable=0;locked=1;connectable=0;" parent="NguQTIr1SdlHwa-LjI-z-61" vertex="1">
            <mxGeometry y="216" width="65" height="19" as="geometry" />
          </mxCell>
        </UserObject>
        <UserObject label="&lt;div style=&quot;font-size: 1px&quot;&gt;&lt;p style=&quot;text-align:center;margin-left:0;margin-right:0;margin-top:0px;margin-bottom:0px;text-indent:0;vertical-align:middle;direction:ltr;&quot;&gt;&lt;font style=&quot;font-size:12.7px;font-family:ISOCPEUR;color:#000000;direction:ltr;letter-spacing:0px;line-height:120%;opacity:1&quot;&gt;&lt;i&gt;Провер.&lt;br/&gt;&lt;/i&gt;&lt;/font&gt;&lt;/p&gt;&lt;/div&gt;" tags="Фон" id="COeZKT1pooXrTItKmlAN-33">
          <mxCell style="verticalAlign=middle;align=center;overflow=width;vsdxID=32;fillColor=none;strokeColor=none;points=[];labelBackgroundColor=none;rounded=0;html=1;whiteSpace=wrap;movable=0;resizable=0;rotatable=0;deletable=0;editable=0;locked=1;connectable=0;" parent="NguQTIr1SdlHwa-LjI-z-61" vertex="1">
            <mxGeometry x="6" y="136" width="65" height="19" as="geometry" />
          </mxCell>
        </UserObject>
        <UserObject label="&lt;div style=&quot;font-size: 1px&quot;&gt;&lt;p style=&quot;text-align:center;margin-left:0;margin-right:0;margin-top:0px;margin-bottom:0px;text-indent:0;vertical-align:middle;direction:ltr;&quot;&gt;&lt;font style=&quot;font-size:12.7px;font-family:ISOCPEUR;color:#000000;direction:ltr;letter-spacing:0px;line-height:120%;opacity:1&quot;&gt;&lt;i&gt;Разраб.&lt;br/&gt;&lt;/i&gt;&lt;/font&gt;&lt;/p&gt;&lt;/div&gt;" tags="Фон" id="COeZKT1pooXrTItKmlAN-34">
          <mxCell style="verticalAlign=middle;align=center;overflow=width;vsdxID=33;fillColor=none;strokeColor=none;points=[];labelBackgroundColor=none;rounded=0;html=1;whiteSpace=wrap;movable=0;resizable=0;rotatable=0;deletable=0;editable=0;locked=1;connectable=0;" parent="NguQTIr1SdlHwa-LjI-z-61" vertex="1">
            <mxGeometry x="6" y="117" width="65" height="17" as="geometry" />
          </mxCell>
        </UserObject>
        <UserObject label="&lt;div style=&quot;font-size: 1px&quot;&gt;&lt;p style=&quot;text-align:center;margin-left:0;margin-right:0;margin-top:0px;margin-bottom:0px;text-indent:0;vertical-align:middle;direction:ltr;&quot;&gt;&lt;font style=&quot;font-size:12.7px;font-family:ISOCPEUR;color:#000000;direction:ltr;letter-spacing:0px;line-height:120%;opacity:1&quot;&gt;&lt;i&gt;Изм.&lt;br/&gt;&lt;/i&gt;&lt;/font&gt;&lt;/p&gt;&lt;/div&gt;" tags="Фон" id="COeZKT1pooXrTItKmlAN-35">
          <mxCell style="verticalAlign=middle;align=center;overflow=width;vsdxID=34;fillColor=none;strokeColor=none;points=[];labelBackgroundColor=none;rounded=0;html=1;whiteSpace=wrap;movable=0;resizable=0;rotatable=0;deletable=0;editable=0;locked=1;connectable=0;" parent="NguQTIr1SdlHwa-LjI-z-61" vertex="1">
            <mxGeometry x="10" y="97" width="36" height="17" as="geometry" />
          </mxCell>
        </UserObject>
        <UserObject label="&lt;div style=&quot;font-size: 1px&quot;&gt;&lt;p style=&quot;text-align:center;margin-left:0;margin-right:0;margin-top:0px;margin-bottom:0px;text-indent:0;vertical-align:middle;direction:ltr;&quot;&gt;&lt;font style=&quot;font-size:12.7px;font-family:ISOCPEUR;color:#000000;direction:ltr;letter-spacing:0px;line-height:120%;opacity:1&quot;&gt;&lt;i&gt;Лист&lt;br/&gt;&lt;/i&gt;&lt;/font&gt;&lt;/p&gt;&lt;/div&gt;" tags="Фон" id="COeZKT1pooXrTItKmlAN-36">
          <mxCell style="verticalAlign=middle;align=center;overflow=width;vsdxID=35;fillColor=none;strokeColor=none;points=[];labelBackgroundColor=none;rounded=0;html=1;whiteSpace=wrap;movable=0;resizable=0;rotatable=0;deletable=0;editable=0;locked=1;connectable=0;" parent="NguQTIr1SdlHwa-LjI-z-61" vertex="1">
            <mxGeometry x="40" y="97" width="42" height="17" as="geometry" />
          </mxCell>
        </UserObject>
        <UserObject label="&lt;div style=&quot;font-size: 1px&quot;&gt;&lt;p style=&quot;text-align:center;margin-left:0;margin-right:0;margin-top:0px;margin-bottom:0px;text-indent:0;vertical-align:middle;direction:ltr;&quot;&gt;&lt;font style=&quot;font-size:12.7px;font-family:ISOCPEUR;color:#000000;direction:ltr;letter-spacing:0px;line-height:120%;opacity:1&quot;&gt;&lt;i&gt;№ докум.&lt;br/&gt;&lt;/i&gt;&lt;/font&gt;&lt;/p&gt;&lt;/div&gt;" tags="Фон" id="COeZKT1pooXrTItKmlAN-37">
          <mxCell style="verticalAlign=middle;align=center;overflow=width;vsdxID=36;fillColor=none;strokeColor=none;points=[];labelBackgroundColor=none;rounded=0;html=1;whiteSpace=wrap;movable=0;resizable=0;rotatable=0;deletable=0;editable=0;locked=1;connectable=0;" parent="NguQTIr1SdlHwa-LjI-z-61" vertex="1">
            <mxGeometry x="83" y="97" width="88" height="17" as="geometry" />
          </mxCell>
        </UserObject>
        <UserObject label="&lt;div style=&quot;font-size: 1px&quot;&gt;&lt;p style=&quot;text-align:center;margin-left:0;margin-right:0;margin-top:0px;margin-bottom:0px;text-indent:0;vertical-align:middle;direction:ltr;&quot;&gt;&lt;font style=&quot;font-size:12.7px;font-family:ISOCPEUR;color:#000000;direction:ltr;letter-spacing:0px;line-height:120%;opacity:1&quot;&gt;&lt;i&gt;Подп.&lt;br/&gt;&lt;/i&gt;&lt;/font&gt;&lt;/p&gt;&lt;/div&gt;" tags="Фон" id="COeZKT1pooXrTItKmlAN-38">
          <mxCell style="verticalAlign=middle;align=center;overflow=width;vsdxID=41;fillColor=none;strokeColor=none;points=[];labelBackgroundColor=none;rounded=0;html=1;whiteSpace=wrap;movable=1;resizable=1;rotatable=1;deletable=1;editable=1;locked=0;connectable=1;" parent="NguQTIr1SdlHwa-LjI-z-61" vertex="1">
            <mxGeometry x="192.24596497068993" y="97" width="56.194974376047824" height="17" as="geometry" />
          </mxCell>
        </UserObject>
        <UserObject label="&lt;div style=&quot;font-size: 1px&quot;&gt;&lt;p style=&quot;text-align:center;margin-left:0;margin-right:0;margin-top:0px;margin-bottom:0px;text-indent:0;vertical-align:middle;direction:ltr;&quot;&gt;&lt;font style=&quot;font-size:12.7px;font-family:ISOCPEUR;color:#000000;direction:ltr;letter-spacing:0px;line-height:120%;opacity:1&quot;&gt;&lt;i&gt;Дата&lt;br/&gt;&lt;/i&gt;&lt;/font&gt;&lt;/p&gt;&lt;/div&gt;" tags="Фон" id="COeZKT1pooXrTItKmlAN-39">
          <mxCell style="verticalAlign=middle;align=center;overflow=width;vsdxID=42;fillColor=none;strokeColor=none;points=[];labelBackgroundColor=none;rounded=0;html=1;whiteSpace=wrap;movable=1;resizable=1;rotatable=1;deletable=1;editable=1;locked=0;connectable=1;" parent="NguQTIr1SdlHwa-LjI-z-61" vertex="1">
            <mxGeometry x="254.35619980737437" y="97" width="41.40682322445629" height="17" as="geometry" />
          </mxCell>
        </UserObject>
        <UserObject label="&lt;div style=&quot;font-size: 1px&quot;&gt;&lt;p style=&quot;text-align:center;margin-left:0;margin-right:0;margin-top:0px;margin-bottom:0px;text-indent:0;vertical-align:middle;direction:ltr;&quot;&gt;&lt;font style=&quot;font-size:12.7px;font-family:ISOCPEUR;color:#000000;direction:ltr;letter-spacing:0px;line-height:120%;opacity:1&quot;&gt;&lt;i&gt;Лит.&lt;br/&gt;&lt;/i&gt;&lt;/font&gt;&lt;/p&gt;&lt;/div&gt;" tags="Фон" id="COeZKT1pooXrTItKmlAN-40">
          <mxCell style="verticalAlign=middle;align=center;overflow=width;vsdxID=43;fillColor=none;strokeColor=none;points=[];labelBackgroundColor=none;rounded=0;html=1;whiteSpace=wrap;movable=1;resizable=1;rotatable=1;deletable=1;editable=1;locked=0;connectable=1;" parent="NguQTIr1SdlHwa-LjI-z-61" vertex="1">
            <mxGeometry x="603.3565669849346" y="77" width="56.194974376047824" height="17" as="geometry" />
          </mxCell>
        </UserObject>
        <UserObject label="&lt;div style=&quot;font-size: 1px&quot;&gt;&lt;p style=&quot;text-align:center;margin-left:0;margin-right:0;margin-top:0px;margin-bottom:0px;text-indent:0;vertical-align:middle;direction:ltr;&quot;&gt;&lt;font style=&quot;font-size:12.7px;font-family:ISOCPEUR;color:#000000;direction:ltr;letter-spacing:0px;line-height:120%;opacity:1&quot;&gt;&lt;i&gt;Масса&lt;br/&gt;&lt;/i&gt;&lt;/font&gt;&lt;/p&gt;&lt;/div&gt;" tags="Фон" id="COeZKT1pooXrTItKmlAN-41">
          <mxCell style="verticalAlign=middle;align=center;overflow=width;vsdxID=44;fillColor=none;strokeColor=none;points=[];labelBackgroundColor=none;rounded=0;html=1;whiteSpace=wrap;movable=1;resizable=1;rotatable=1;deletable=1;editable=1;locked=0;connectable=1;" parent="NguQTIr1SdlHwa-LjI-z-61" vertex="1">
            <mxGeometry x="667.4385553084978" y="77" width="62.11023483668444" height="17" as="geometry" />
          </mxCell>
        </UserObject>
        <UserObject label="&lt;div style=&quot;font-size: 1px&quot;&gt;&lt;p style=&quot;text-align:center;margin-left:0;margin-right:0;margin-top:0px;margin-bottom:0px;text-indent:0;vertical-align:middle;direction:ltr;&quot;&gt;&lt;font style=&quot;font-size:12.7px;font-family:ISOCPEUR;color:#000000;direction:ltr;letter-spacing:0px;line-height:120%;opacity:1&quot;&gt;&lt;i&gt;Масштаб&lt;br/&gt;&lt;/i&gt;&lt;/font&gt;&lt;/p&gt;&lt;/div&gt;" tags="Фон" id="COeZKT1pooXrTItKmlAN-42">
          <mxCell style="verticalAlign=middle;align=center;overflow=width;vsdxID=45;fillColor=none;strokeColor=none;points=[];labelBackgroundColor=none;rounded=0;html=1;whiteSpace=wrap;movable=1;resizable=1;rotatable=1;deletable=1;editable=1;locked=0;connectable=1;" parent="NguQTIr1SdlHwa-LjI-z-61" vertex="1">
            <mxGeometry x="736.4499273492584" y="77" width="69.99724878419993" height="17" as="geometry" />
          </mxCell>
        </UserObject>
        <UserObject label="&lt;div style=&quot;font-size: 1px&quot;&gt;&lt;p style=&quot;text-align:center;margin-left:0;margin-right:0;margin-top:0px;margin-bottom:0px;text-indent:0;vertical-align:middle;direction:ltr;&quot;&gt;&lt;font style=&quot;font-size:12.7px;font-family:ISOCPEUR;color:#000000;direction:ltr;letter-spacing:0px;line-height:120%;opacity:1&quot;&gt;&lt;i&gt;Листов 1&lt;br/&gt;&lt;/i&gt;&lt;/font&gt;&lt;/p&gt;&lt;/div&gt;" tags="Фон" id="COeZKT1pooXrTItKmlAN-43">
          <mxCell style="verticalAlign=middle;align=center;overflow=width;vsdxID=46;fillColor=none;strokeColor=none;points=[];labelBackgroundColor=none;rounded=0;html=1;whiteSpace=wrap;movable=1;resizable=1;rotatable=1;deletable=1;editable=1;locked=0;connectable=1;" parent="NguQTIr1SdlHwa-LjI-z-61" vertex="1">
            <mxGeometry x="689.1278436641654" y="157" width="115.34757898241396" height="17" as="geometry" />
          </mxCell>
        </UserObject>
        <UserObject label="&lt;div style=&quot;font-size: 1px&quot;&gt;&lt;p style=&quot;text-align:center;margin-left:0;margin-right:0;margin-top:0px;margin-bottom:0px;text-indent:0;vertical-align:middle;direction:ltr;&quot;&gt;&lt;font style=&quot;font-size:12.7px;font-family:ISOCPEUR;color:#000000;direction:ltr;letter-spacing:0px;line-height:120%;opacity:1&quot;&gt;&lt;i&gt;Лист 1&lt;br/&gt;&lt;/i&gt;&lt;/font&gt;&lt;/p&gt;&lt;/div&gt;" tags="Фон" id="COeZKT1pooXrTItKmlAN-44">
          <mxCell style="verticalAlign=middle;align=center;overflow=width;vsdxID=47;fillColor=none;strokeColor=none;points=[];labelBackgroundColor=none;rounded=0;html=1;whiteSpace=wrap;movable=1;resizable=1;rotatable=1;deletable=1;editable=1;locked=0;connectable=1;" parent="NguQTIr1SdlHwa-LjI-z-61" vertex="1">
            <mxGeometry x="597.4413065242979" y="157" width="74.92663250139711" height="17" as="geometry" />
          </mxCell>
        </UserObject>
        <UserObject label="&lt;div style=&quot;font-size: 1px&quot;&gt;&lt;font style=&quot;font-size:19.76px;font-family:ISOCPEUR;color:#000000;direction:ltr;letter-spacing:0px;line-height:120%;opacity:1&quot;&gt;&lt;i&gt;Схема работы системы&lt;br/&gt;&lt;/i&gt;&lt;/font&gt;&lt;/div&gt;" tags="Фон" id="COeZKT1pooXrTItKmlAN-46">
          <mxCell style="verticalAlign=middle;align=center;overflow=width;vsdxID=49;fillColor=none;shape=stencil(nZBLDoAgDERP0z3SIyjew0SURgSD+Lu9kMZoXLhwN9O+tukAlrNpJg1SzDH4QW/URgNYgZTkjA4UkwJUgGXng+6DX1zLfmoymdXo17xh5zmRJ6Q42BWCfc2oJfdAr+Yv+AP9Cb7OJ3H/2JG1HNGz/84klThPVCc=);strokeColor=none;points=[];labelBackgroundColor=none;rounded=0;html=1;whiteSpace=wrap;movable=1;resizable=1;rotatable=1;deletable=1;editable=1;locked=0;connectable=1;" parent="NguQTIr1SdlHwa-LjI-z-61" vertex="1">
            <mxGeometry x="309.56529743998277" y="113" width="269.1443509589659" height="28" as="geometry" />
          </mxCell>
        </UserObject>
        <UserObject label="&lt;div style=&quot;font-size: 1px&quot;&gt;&lt;font style=&quot;font-size:12.7px;font-family:ISOCPEUR;color:#000000;direction:ltr;letter-spacing:0px;line-height:120%;opacity:1&quot;&gt;&lt;i&gt;Снарская В.Я.&lt;/i&gt;&lt;/font&gt;&lt;/div&gt;" tags="Фон" id="COeZKT1pooXrTItKmlAN-47">
          <mxCell style="verticalAlign=middle;align=center;overflow=width;vsdxID=50;fillColor=none;shape=stencil(nZBLDoAgDERP0z3SIyjew0SURgSD+Lu9kMZoXLhwN9O+tukAlrNpJg1SzDH4QW/URgNYgZTkjA4UkwJUgGXng+6DX1zLfmoymdXo17xh5zmRJ6Q42BWCfc2oJfdAr+Yv+AP9Cb7OJ3H/2JG1HNGz/84klThPVCc=);strokeColor=none;points=[];labelBackgroundColor=none;rounded=0;html=1;whiteSpace=wrap;movable=1;resizable=1;rotatable=1;deletable=1;editable=1;locked=0;connectable=1;" parent="NguQTIr1SdlHwa-LjI-z-61" vertex="1">
            <mxGeometry x="24.646918585985887" y="130" width="203.09060914852373" height="31" as="geometry" />
          </mxCell>
        </UserObject>
        <UserObject label="&lt;div style=&quot;font-size: 1px&quot;&gt;&lt;font style=&quot;font-size:12.7px;font-family:ISOCPEUR;color:#000000;direction:ltr;letter-spacing:0px;line-height:120%;opacity:1&quot;&gt;&lt;i&gt;Шандроха П.В&lt;br&gt;&lt;/i&gt;&lt;/font&gt;&lt;/div&gt;" tags="Фон" id="COeZKT1pooXrTItKmlAN-48">
          <mxCell style="verticalAlign=middle;align=center;overflow=width;vsdxID=51;fillColor=none;shape=stencil(nZBLDoAgDERP0z3SIyjew0SURgSD+Lu9kMZoXLhwN9O+tukAlrNpJg1SzDH4QW/URgNYgZTkjA4UkwJUgGXng+6DX1zLfmoymdXo17xh5zmRJ6Q42BWCfc2oJfdAr+Yv+AP9Cb7OJ3H/2JG1HNGz/84klThPVCc=);strokeColor=none;points=[];labelBackgroundColor=none;rounded=0;html=1;whiteSpace=wrap;movable=1;resizable=1;rotatable=1;deletable=1;editable=1;locked=0;connectable=1;" parent="NguQTIr1SdlHwa-LjI-z-61" vertex="1">
            <mxGeometry x="22.67516509910702" y="113" width="210.9776230960392" height="28" as="geometry" />
          </mxCell>
        </UserObject>
        <UserObject label="&lt;div style=&quot;font-size: 1px&quot;&gt;&lt;p style=&quot;text-align:center;margin-left:0;margin-right:0;margin-top:0px;margin-bottom:0px;text-indent:0;vertical-align:middle;direction:ltr;&quot;&gt;&lt;font style=&quot;font-size:19.76px;font-family:ISOCPEUR;color:#000000;direction:ltr;letter-spacing:0px;line-height:120%;opacity:1&quot;&gt;&lt;i&gt;К&lt;/i&gt;&lt;/font&gt;&lt;font style=&quot;font-size:19.76px;font-family:ISOCPEUR;color:#000000;direction:ltr;letter-spacing:0px;line-height:120%;opacity:1&quot;&gt;&lt;i&gt;П 2-&lt;/i&gt;&lt;/font&gt;&lt;font style=&quot;font-size:19.76px;font-family:ISOCPEUR;color:#000000;direction:ltr;letter-spacing:0px;line-height:120%;opacity:1&quot;&gt;&lt;i&gt;40 &lt;/i&gt;&lt;/font&gt;&lt;font style=&quot;font-size:19.76px;font-family:ISOCPEUR;color:#000000;direction:ltr;letter-spacing:0px;line-height:120%;opacity:1&quot;&gt;&lt;i&gt;0&lt;/i&gt;&lt;/font&gt;&lt;font style=&quot;font-size:19.76px;font-family:ISOCPEUR;color:#000000;direction:ltr;letter-spacing:0px;line-height:120%;opacity:1&quot;&gt;&lt;i&gt;1 01.35&lt;/i&gt;&lt;/font&gt;&lt;font style=&quot;font-size:19.76px;font-family:ISOCPEUR;color:#000000;direction:ltr;letter-spacing:0px;line-height:120%;opacity:1&quot;&gt;&lt;i&gt;.40&lt;/i&gt;&lt;/font&gt;&lt;font style=&quot;font-size:19.76px;font-family:ISOCPEUR;color:#000000;direction:ltr;letter-spacing:0px;line-height:120%;opacity:1&quot;&gt;&lt;i&gt;.19&lt;/i&gt;&lt;/font&gt;&lt;font style=&quot;font-size:19.76px;font-family:ISOCPEUR;color:#000000;direction:ltr;letter-spacing:0px;line-height:120%;opacity:1&quot;&gt;&lt;i&gt;.24 ГЧ&lt;/i&gt;&lt;/font&gt;&lt;font style=&quot;font-size:19.76px;font-family:ISOCPEUR;color:#000000;direction:ltr;letter-spacing:0px;line-height:120%;opacity:1&quot;&gt;&lt;i&gt;&lt;br&gt;&lt;/i&gt;&lt;/font&gt;&lt;/p&gt;&lt;/div&gt;" tags="Фон" id="COeZKT1pooXrTItKmlAN-49">
          <mxCell style="verticalAlign=middle;align=center;overflow=width;vsdxID=198;fillColor=none;shape=stencil(nZBLDoAgDERP0z3SIyjew0SURgSD+Lu9kMZoXLhwN9O+tukAlrNpJg1SzDH4QW/URgNYgZTkjA4UkwJUgGXng+6DX1zLfmoymdXo17xh5zmRJ6Q42BWCfc2oJfdAr+Yv+AP9Cb7OJ3H/2JG1HNGz/84klThPVCc=);strokeColor=none;points=[];labelBackgroundColor=none;rounded=0;html=1;whiteSpace=wrap;movable=1;resizable=1;rotatable=1;deletable=1;editable=1;locked=0;connectable=1;" parent="NguQTIr1SdlHwa-LjI-z-61" vertex="1">
            <mxGeometry x="295.81286530374746" width="533.3193346962524" height="89" as="geometry" />
          </mxCell>
        </UserObject>
        <UserObject label="&lt;div style=&quot;font-size: 1px&quot;&gt;&lt;p style=&quot;text-align:center;margin-left:0;margin-right:0;margin-top:0px;margin-bottom:0px;text-indent:0;vertical-align:middle;direction:ltr;&quot;&gt;&lt;font style=&quot;font-size:19.76px;font-family:ISOCPEUR;color:#000000;direction:ltr;letter-spacing:0px;line-height:120%;opacity:1&quot;&gt;&lt;i&gt;УО ГГПК&lt;br/&gt;&lt;/i&gt;&lt;/font&gt;&lt;/p&gt;&lt;/div&gt;" tags="Фон" id="COeZKT1pooXrTItKmlAN-50">
          <mxCell style="verticalAlign=middle;align=center;overflow=width;vsdxID=201;fillColor=none;strokeColor=none;points=[];labelBackgroundColor=none;rounded=0;html=1;whiteSpace=wrap;movable=1;resizable=1;rotatable=1;deletable=1;editable=1;locked=0;connectable=1;" parent="NguQTIr1SdlHwa-LjI-z-61" vertex="1">
            <mxGeometry x="610.2577041890106" y="175" width="195.20359520100823" height="60" as="geometry" />
          </mxCell>
        </UserObject>
        <UserObject label="&lt;div style=&quot;font-size: 13px;&quot;&gt;&lt;p style=&quot;text-align: center; margin: 0px; text-indent: 0px; vertical-align: middle; direction: ltr; font-size: 13px;&quot;&gt;&lt;font style=&quot;direction: ltr; line-height: 120%; opacity: 1; font-size: 13px;&quot;&gt;&lt;i style=&quot;font-size: 13px;&quot;&gt;&lt;font face=&quot;ISOCPEUR&quot; style=&quot;font-size: 13px;&quot;&gt;Разработка игрового приложения «Дорога жизни»&lt;/font&gt;&lt;br style=&quot;font-size: 13px;&quot;&gt;&lt;/i&gt;&lt;/font&gt;&lt;/p&gt;&lt;/div&gt;" tags="Фон" id="COeZKT1pooXrTItKmlAN-51">
          <mxCell style="verticalAlign=middle;align=center;overflow=width;vsdxID=203;fillColor=none;shape=stencil(nZBLDoAgDERP0z3SIyjew0SURgSD+Lu9kMZoXLhwN9O+tukAlrNpJg1SzDH4QW/URgNYgZTkjA4UkwJUgGXng+6DX1zLfmoymdXo17xh5zmRJ6Q42BWCfc2oJfdAr+Yv+AP9Cb7OJ3H/2JG1HNGz/84klThPVCc=);strokeColor=none;points=[];labelBackgroundColor=none;rounded=0;html=1;whiteSpace=wrap;movable=1;resizable=1;rotatable=1;deletable=1;editable=1;locked=0;connectable=1;fontSize=13;" parent="NguQTIr1SdlHwa-LjI-z-61" vertex="1">
            <mxGeometry x="295.80869981128154" y="185" width="297.9678874011451" height="39" as="geometry" />
          </mxCell>
        </UserObject>
        <UserObject label="" tags="Фон" id="COeZKT1pooXrTItKmlAN-3">
          <mxCell style="vsdxID=2;edgeStyle=none;startArrow=none;endArrow=none;startSize=5;endSize=5;strokeWidth=3;spacingTop=0;spacingBottom=0;spacingLeft=0;spacingRight=0;verticalAlign=middle;html=1;labelBackgroundColor=none;rounded=0;fontColor=default;movable=0;resizable=0;rotatable=0;deletable=0;editable=0;locked=1;connectable=0;" parent="NguQTIr1SdlHwa-LjI-z-61" edge="1">
            <mxGeometry relative="1" as="geometry">
              <mxPoint as="offset" />
              <Array as="points" />
              <mxPoint x="12.95512553918005" y="14.847201642757682" as="sourcePoint" />
              <mxPoint x="815.0501314216251" y="14.847201642757682" as="targetPoint" />
            </mxGeometry>
          </mxCell>
        </UserObject>
        <UserObject label="" tags="Фон" id="COeZKT1pooXrTItKmlAN-21">
          <mxCell style="vsdxID=20;edgeStyle=none;startArrow=none;endArrow=none;startSize=5;endSize=5;spacingTop=0;spacingBottom=0;spacingLeft=0;spacingRight=0;verticalAlign=middle;html=1;labelBackgroundColor=none;rounded=0;fontColor=default;movable=0;resizable=0;rotatable=0;deletable=0;editable=0;locked=1;connectable=0;" parent="NguQTIr1SdlHwa-LjI-z-61" edge="1">
            <mxGeometry relative="1" as="geometry">
              <Array as="points" />
              <mxPoint x="16.116756092096416" y="33" as="sourcePoint" />
              <mxPoint x="295.80869981128154" y="33" as="targetPoint" />
            </mxGeometry>
          </mxCell>
        </UserObject>
      </root>
    </mxGraphModel>
  </diagram>
</mxfile>
